M48
; DRILL file {KiCad (5.1.10-1-10_14)} date Monday, August 23, 2021 at 10:51:22 PM
; FORMAT={-:-/ absolute / inch / decimal}
; #@! TF.CreationDate,2021-08-23T22:51:22-07:00
; #@! TF.GenerationSoftware,Kicad,Pcbnew,(5.1.10-1-10_14)
FMAT,2
INCH
T1C0.0157
T2C0.0236
T3C0.0295
T4C0.0374
T5C0.0394
T6C0.0433
T7C0.0866
%
G90
G05
T1
X2.5219Y-2.6781
X2.9Y-2.25
T2
X1.8Y-2.1
X1.8Y-3.4
X2.0Y-3.15
X2.15Y-2.1
X2.25Y-2.95
X2.4Y-3.2
X2.4Y-3.35
X2.45Y-3.15
X2.5Y-2.6
X2.5Y-3.35
X2.6Y-2.1
X2.69Y-3.16
X2.75Y-2.25
X2.75Y-2.425
X2.75Y-2.475
X2.75Y-2.6
X2.79Y-3.16
X2.89Y-3.16
X2.96Y-3.19
X3.15Y-2.1
X3.2Y-2.35
X3.2Y-2.45
X3.2Y-2.65
X3.525Y-2.35
X3.525Y-2.45
X3.525Y-2.65
X3.6Y-2.1
X3.6Y-2.2
X3.6Y-2.3
X3.6Y-2.8
X3.6Y-2.9
X3.6Y-3.0
X3.6Y-3.1
X3.6Y-3.2
X3.6Y-3.3
X3.6Y-3.4
X3.85Y-2.2
X3.85Y-2.3
X3.85Y-2.75
X3.85Y-2.85
X3.85Y-2.95
X3.85Y-3.05
X3.85Y-3.15
X3.85Y-3.25
X3.85Y-3.35
T3
X1.9Y-2.585
X1.9Y-2.6638
X1.9Y-2.7425
X1.9Y-2.8213
X1.9Y-2.9
T4
X2.8031Y-2.1
X2.9016Y-2.1
X3.0Y-2.1
T5
X1.9Y-3.3
X1.9Y-3.4
X1.9016Y-2.1
X2.0Y-2.1
X2.0Y-3.3
X2.0Y-3.4
X2.1Y-3.3
X2.1Y-3.4
X2.2Y-3.3
X2.2Y-3.4
X2.3Y-3.3
X2.3Y-3.4
X2.3516Y-2.1
X2.45Y-2.1
X2.6Y-3.3
X2.6Y-3.4
X2.7Y-3.3
X2.7Y-3.4
X2.8Y-3.3
X2.8Y-3.4
X2.9Y-3.3
X2.9Y-3.4
X3.0Y-3.3
X3.0Y-3.4
X3.3Y-2.1
X3.3Y-2.2
X3.3Y-2.3
X3.3Y-2.4
X3.3Y-2.5
X3.3Y-2.6
X3.3Y-2.7
X3.3Y-2.8
X3.3Y-2.9
X3.3Y-3.0
X3.3Y-3.1
X3.3Y-3.2
X3.3Y-3.3
X3.3Y-3.4
X4.1Y-2.1
X4.1Y-2.2
X4.1Y-2.3
X4.1Y-2.4
X4.1Y-2.5
X4.1Y-2.6
X4.1Y-2.7
X4.1Y-2.8
X4.1Y-2.9
X4.1Y-3.0
X4.1Y-3.1
X4.1Y-3.2
X4.1Y-3.3
X4.1Y-3.4
T6
X3.4Y-2.1
X3.4Y-2.2
X3.4Y-2.3
X3.4Y-2.4
X3.4Y-2.5
X3.4Y-2.6
X3.4Y-2.7
X3.4Y-2.8
X3.4Y-2.9
X3.4Y-3.0
X3.4Y-3.1
X3.4Y-3.2
X3.4Y-3.3
X3.4Y-3.4
X4.0Y-2.1
X4.0Y-2.2
X4.0Y-2.3
X4.0Y-2.4
X4.0Y-2.5
X4.0Y-2.6
X4.0Y-2.7
X4.0Y-2.8
X4.0Y-2.9
X4.0Y-3.0
X4.0Y-3.1
X4.0Y-3.2
X4.0Y-3.3
X4.0Y-3.4
T7
X2.2Y-2.5
X3.7Y-2.5
T0
M30
