%TF.GenerationSoftware,KiCad,Pcbnew,(5.1.10-1-10_14)*%
%TF.CreationDate,2021-08-23T22:51:27-07:00*%
%TF.ProjectId,town,746f776e-2e6b-4696-9361-645f70636258,rev?*%
%TF.SameCoordinates,Original*%
%TF.FileFunction,Paste,Top*%
%TF.FilePolarity,Positive*%
%FSLAX46Y46*%
G04 Gerber Fmt 4.6, Leading zero omitted, Abs format (unit mm)*
G04 Created by KiCad (PCBNEW (5.1.10-1-10_14)) date 2021-08-23 22:51:27*
%MOMM*%
%LPD*%
G01*
G04 APERTURE LIST*
%ADD10R,1.900000X0.800000*%
G04 APERTURE END LIST*
D10*
%TO.C,Q1*%
X64540000Y-63500000D03*
X67540000Y-62550000D03*
X67540000Y-64450000D03*
%TD*%
%TO.C,R4*%
G36*
G01*
X77232500Y-63925000D02*
X77707500Y-63925000D01*
G75*
G02*
X77945000Y-64162500I0J-237500D01*
G01*
X77945000Y-64662500D01*
G75*
G02*
X77707500Y-64900000I-237500J0D01*
G01*
X77232500Y-64900000D01*
G75*
G02*
X76995000Y-64662500I0J237500D01*
G01*
X76995000Y-64162500D01*
G75*
G02*
X77232500Y-63925000I237500J0D01*
G01*
G37*
G36*
G01*
X77232500Y-62100000D02*
X77707500Y-62100000D01*
G75*
G02*
X77945000Y-62337500I0J-237500D01*
G01*
X77945000Y-62837500D01*
G75*
G02*
X77707500Y-63075000I-237500J0D01*
G01*
X77232500Y-63075000D01*
G75*
G02*
X76995000Y-62837500I0J237500D01*
G01*
X76995000Y-62337500D01*
G75*
G02*
X77232500Y-62100000I237500J0D01*
G01*
G37*
%TD*%
%TO.C,R3*%
G36*
G01*
X72627500Y-63075000D02*
X72152500Y-63075000D01*
G75*
G02*
X71915000Y-62837500I0J237500D01*
G01*
X71915000Y-62337500D01*
G75*
G02*
X72152500Y-62100000I237500J0D01*
G01*
X72627500Y-62100000D01*
G75*
G02*
X72865000Y-62337500I0J-237500D01*
G01*
X72865000Y-62837500D01*
G75*
G02*
X72627500Y-63075000I-237500J0D01*
G01*
G37*
G36*
G01*
X72627500Y-64900000D02*
X72152500Y-64900000D01*
G75*
G02*
X71915000Y-64662500I0J237500D01*
G01*
X71915000Y-64162500D01*
G75*
G02*
X72152500Y-63925000I237500J0D01*
G01*
X72627500Y-63925000D01*
G75*
G02*
X72865000Y-64162500I0J-237500D01*
G01*
X72865000Y-64662500D01*
G75*
G02*
X72627500Y-64900000I-237500J0D01*
G01*
G37*
%TD*%
%TO.C,R2*%
G36*
G01*
X72627500Y-68512500D02*
X72152500Y-68512500D01*
G75*
G02*
X71915000Y-68275000I0J237500D01*
G01*
X71915000Y-67775000D01*
G75*
G02*
X72152500Y-67537500I237500J0D01*
G01*
X72627500Y-67537500D01*
G75*
G02*
X72865000Y-67775000I0J-237500D01*
G01*
X72865000Y-68275000D01*
G75*
G02*
X72627500Y-68512500I-237500J0D01*
G01*
G37*
G36*
G01*
X72627500Y-70337500D02*
X72152500Y-70337500D01*
G75*
G02*
X71915000Y-70100000I0J237500D01*
G01*
X71915000Y-69600000D01*
G75*
G02*
X72152500Y-69362500I237500J0D01*
G01*
X72627500Y-69362500D01*
G75*
G02*
X72865000Y-69600000I0J-237500D01*
G01*
X72865000Y-70100000D01*
G75*
G02*
X72627500Y-70337500I-237500J0D01*
G01*
G37*
%TD*%
%TO.C,R1*%
G36*
G01*
X67072500Y-69362500D02*
X67547500Y-69362500D01*
G75*
G02*
X67785000Y-69600000I0J-237500D01*
G01*
X67785000Y-70100000D01*
G75*
G02*
X67547500Y-70337500I-237500J0D01*
G01*
X67072500Y-70337500D01*
G75*
G02*
X66835000Y-70100000I0J237500D01*
G01*
X66835000Y-69600000D01*
G75*
G02*
X67072500Y-69362500I237500J0D01*
G01*
G37*
G36*
G01*
X67072500Y-67537500D02*
X67547500Y-67537500D01*
G75*
G02*
X67785000Y-67775000I0J-237500D01*
G01*
X67785000Y-68275000D01*
G75*
G02*
X67547500Y-68512500I-237500J0D01*
G01*
X67072500Y-68512500D01*
G75*
G02*
X66835000Y-68275000I0J237500D01*
G01*
X66835000Y-67775000D01*
G75*
G02*
X67072500Y-67537500I237500J0D01*
G01*
G37*
%TD*%
%TO.C,C1*%
G36*
G01*
X77707500Y-68662500D02*
X77232500Y-68662500D01*
G75*
G02*
X76995000Y-68425000I0J237500D01*
G01*
X76995000Y-67825000D01*
G75*
G02*
X77232500Y-67587500I237500J0D01*
G01*
X77707500Y-67587500D01*
G75*
G02*
X77945000Y-67825000I0J-237500D01*
G01*
X77945000Y-68425000D01*
G75*
G02*
X77707500Y-68662500I-237500J0D01*
G01*
G37*
G36*
G01*
X77707500Y-70387500D02*
X77232500Y-70387500D01*
G75*
G02*
X76995000Y-70150000I0J237500D01*
G01*
X76995000Y-69550000D01*
G75*
G02*
X77232500Y-69312500I237500J0D01*
G01*
X77707500Y-69312500D01*
G75*
G02*
X77945000Y-69550000I0J-237500D01*
G01*
X77945000Y-70150000D01*
G75*
G02*
X77707500Y-70387500I-237500J0D01*
G01*
G37*
%TD*%
M02*
