%TF.GenerationSoftware,KiCad,Pcbnew,(5.1.10-1-10_14)*%
%TF.CreationDate,2021-08-23T22:51:27-07:00*%
%TF.ProjectId,town,746f776e-2e6b-4696-9361-645f70636258,rev?*%
%TF.SameCoordinates,Original*%
%TF.FileFunction,Copper,L2,Bot*%
%TF.FilePolarity,Positive*%
%FSLAX46Y46*%
G04 Gerber Fmt 4.6, Leading zero omitted, Abs format (unit mm)*
G04 Created by KiCad (PCBNEW (5.1.10-1-10_14)) date 2021-08-23 22:51:27*
%MOMM*%
%LPD*%
G01*
G04 APERTURE LIST*
%TA.AperFunction,ComponentPad*%
%ADD10C,4.399999*%
%TD*%
%TA.AperFunction,ComponentPad*%
%ADD11R,1.600000X1.600000*%
%TD*%
%TA.AperFunction,ComponentPad*%
%ADD12C,1.600000*%
%TD*%
%TA.AperFunction,ComponentPad*%
%ADD13O,1.700000X1.700000*%
%TD*%
%TA.AperFunction,ComponentPad*%
%ADD14R,1.700000X1.700000*%
%TD*%
%TA.AperFunction,ComponentPad*%
%ADD15O,1.700000X2.000000*%
%TD*%
%TA.AperFunction,ComponentPad*%
%ADD16O,1.700000X1.950000*%
%TD*%
%TA.AperFunction,ComponentPad*%
%ADD17O,1.750000X1.200000*%
%TD*%
%TA.AperFunction,ComponentPad*%
%ADD18C,1.700000*%
%TD*%
%TA.AperFunction,ViaPad*%
%ADD19C,1.000000*%
%TD*%
%TA.AperFunction,ViaPad*%
%ADD20C,0.800000*%
%TD*%
%TA.AperFunction,Conductor*%
%ADD21C,0.400000*%
%TD*%
%TA.AperFunction,Conductor*%
%ADD22C,0.800000*%
%TD*%
%TA.AperFunction,Conductor*%
%ADD23C,0.250000*%
%TD*%
%TA.AperFunction,Conductor*%
%ADD24C,0.254000*%
%TD*%
%TA.AperFunction,Conductor*%
%ADD25C,0.100000*%
%TD*%
G04 APERTURE END LIST*
D10*
%TO.P,M2,1*%
%TO.N,GND*%
X93980000Y-63500000D03*
%TD*%
%TO.P,M1,1*%
%TO.N,GND*%
X55880000Y-63500000D03*
%TD*%
D11*
%TO.P,U1,1*%
%TO.N,GND*%
X86360000Y-53340000D03*
D12*
%TO.P,U1,2*%
%TO.N,/DOOR1*%
X86360000Y-55880000D03*
%TO.P,U1,3*%
%TO.N,/DOOR2*%
X86360000Y-58420000D03*
%TO.P,U1,4*%
%TO.N,/STRIP_LED_EN*%
X86360000Y-60960000D03*
%TO.P,U1,5*%
%TO.N,/CHG*%
X86360000Y-63500000D03*
%TO.P,U1,6*%
%TO.N,/PGOOD*%
X86360000Y-66040000D03*
%TO.P,U1,7*%
%TO.N,/PANEL_LED_DIN*%
X86360000Y-68580000D03*
%TO.P,U1,8*%
%TO.N,/BEEP*%
X86360000Y-71120000D03*
%TO.P,U1,9*%
%TO.N,/LCD_RST*%
X86360000Y-73660000D03*
%TO.P,U1,10*%
%TO.N,/LCD_A0*%
X86360000Y-76200000D03*
%TO.P,U1,11*%
%TO.N,/LCD_CS*%
X86360000Y-78740000D03*
%TO.P,U1,12*%
%TO.N,/SDCARD_CS*%
X86360000Y-81280000D03*
%TO.P,U1,13*%
%TO.N,/MOSI*%
X86360000Y-83820000D03*
%TO.P,U1,33*%
%TO.N,VBUS*%
X101600000Y-53340000D03*
%TO.P,U1,32*%
%TO.N,/AGND*%
X101600000Y-55880000D03*
%TO.P,U1,31*%
%TO.N,/VCC*%
X101600000Y-58420000D03*
%TO.P,U1,30*%
%TO.N,/X_A9*%
X101600000Y-60960000D03*
%TO.P,U1,29*%
%TO.N,/X_A8*%
X101600000Y-63500000D03*
%TO.P,U1,28*%
%TO.N,/STRIP_LED_DIN*%
X101600000Y-66040000D03*
%TO.P,U1,27*%
%TO.N,/BATTMON*%
X101600000Y-68580000D03*
%TO.P,U1,26*%
%TO.N,/BTN_ENC*%
X101600000Y-71120000D03*
%TO.P,U1,25*%
%TO.N,/SW_KILL*%
X101600000Y-73660000D03*
%TO.P,U1,24*%
%TO.N,/SDCARD_CD*%
X101600000Y-76200000D03*
%TO.P,U1,23*%
%TO.N,/BTN_EN2*%
X101600000Y-78740000D03*
%TO.P,U1,22*%
%TO.N,/BTN_EN1*%
X101600000Y-81280000D03*
%TO.P,U1,21*%
%TO.N,/SCK*%
X101600000Y-83820000D03*
%TO.P,U1,14*%
%TO.N,/MISO*%
X86360000Y-86360000D03*
%TO.P,U1,20*%
%TO.N,/X_D13*%
X101600000Y-86360000D03*
%TD*%
D13*
%TO.P,EXP2,10*%
%TO.N,/MISO*%
X76200000Y-83820000D03*
%TO.P,EXP2,9*%
%TO.N,/SCK*%
X76200000Y-86360000D03*
%TO.P,EXP2,8*%
%TO.N,/BTN_EN1*%
X73660000Y-83820000D03*
%TO.P,EXP2,7*%
%TO.N,/SDCARD_CS*%
X73660000Y-86360000D03*
%TO.P,EXP2,6*%
%TO.N,/BTN_EN2*%
X71120000Y-83820000D03*
%TO.P,EXP2,5*%
%TO.N,/MOSI*%
X71120000Y-86360000D03*
%TO.P,EXP2,4*%
%TO.N,/SDCARD_CD*%
X68580000Y-83820000D03*
%TO.P,EXP2,3*%
%TO.N,/SW_RST*%
X68580000Y-86360000D03*
%TO.P,EXP2,2*%
%TO.N,GND*%
X66040000Y-83820000D03*
D14*
%TO.P,EXP2,1*%
%TO.N,/SW_KILL*%
X66040000Y-86360000D03*
%TD*%
D13*
%TO.P,EXP1,10*%
%TO.N,/BEEP*%
X58420000Y-83820000D03*
%TO.P,EXP1,9*%
%TO.N,/BTN_ENC*%
X58420000Y-86360000D03*
%TO.P,EXP1,8*%
%TO.N,/LCD_CS*%
X55880000Y-83820000D03*
%TO.P,EXP1,7*%
%TO.N,/LCD_A0*%
X55880000Y-86360000D03*
%TO.P,EXP1,6*%
%TO.N,/LCD_RST*%
X53340000Y-83820000D03*
%TO.P,EXP1,5*%
%TO.N,/PANEL_LED_DIN*%
X53340000Y-86360000D03*
%TO.P,EXP1,4*%
%TO.N,Net-(EXP1-Pad4)*%
X50800000Y-83820000D03*
%TO.P,EXP1,3*%
%TO.N,Net-(EXP1-Pad3)*%
X50800000Y-86360000D03*
%TO.P,EXP1,2*%
%TO.N,GND*%
X48260000Y-83820000D03*
D14*
%TO.P,EXP1,1*%
%TO.N,VBUS*%
X48260000Y-86360000D03*
%TD*%
D15*
%TO.P,J4,2*%
%TO.N,/DOOR2*%
X48300000Y-53340000D03*
%TO.P,J4,1*%
%TO.N,GND*%
%TA.AperFunction,ComponentPad*%
G36*
G01*
X51650000Y-52590000D02*
X51650000Y-54090000D01*
G75*
G02*
X51400000Y-54340000I-250000J0D01*
G01*
X50200000Y-54340000D01*
G75*
G02*
X49950000Y-54090000I0J250000D01*
G01*
X49950000Y-52590000D01*
G75*
G02*
X50200000Y-52340000I250000J0D01*
G01*
X51400000Y-52340000D01*
G75*
G02*
X51650000Y-52590000I0J-250000D01*
G01*
G37*
%TD.AperFunction*%
%TD*%
%TO.P,J3,2*%
%TO.N,/DOOR1*%
X59730000Y-53340000D03*
%TO.P,J3,1*%
%TO.N,GND*%
%TA.AperFunction,ComponentPad*%
G36*
G01*
X63080000Y-52590000D02*
X63080000Y-54090000D01*
G75*
G02*
X62830000Y-54340000I-250000J0D01*
G01*
X61630000Y-54340000D01*
G75*
G02*
X61380000Y-54090000I0J250000D01*
G01*
X61380000Y-52590000D01*
G75*
G02*
X61630000Y-52340000I250000J0D01*
G01*
X62830000Y-52340000D01*
G75*
G02*
X63080000Y-52590000I0J-250000D01*
G01*
G37*
%TD.AperFunction*%
%TD*%
D16*
%TO.P,J2,3*%
%TO.N,VBUS*%
X71200000Y-53340000D03*
%TO.P,J2,2*%
%TO.N,/STRIP_LED_DIN*%
X73700000Y-53340000D03*
%TO.P,J2,1*%
%TO.N,/STRIP_LED_GND*%
%TA.AperFunction,ComponentPad*%
G36*
G01*
X77050000Y-52615000D02*
X77050000Y-54065000D01*
G75*
G02*
X76800000Y-54315000I-250000J0D01*
G01*
X75600000Y-54315000D01*
G75*
G02*
X75350000Y-54065000I0J250000D01*
G01*
X75350000Y-52615000D01*
G75*
G02*
X75600000Y-52365000I250000J0D01*
G01*
X76800000Y-52365000D01*
G75*
G02*
X77050000Y-52615000I0J-250000D01*
G01*
G37*
%TD.AperFunction*%
%TD*%
D17*
%TO.P,J1,5*%
%TO.N,/VLIPO*%
X48260000Y-65660000D03*
%TO.P,J1,4*%
%TO.N,GND*%
X48260000Y-67660000D03*
%TO.P,J1,3*%
%TO.N,VBUS*%
X48260000Y-69660000D03*
%TO.P,J1,2*%
%TO.N,/CHG*%
X48260000Y-71660000D03*
%TO.P,J1,1*%
%TO.N,/PGOOD*%
%TA.AperFunction,ComponentPad*%
G36*
G01*
X48885001Y-74260000D02*
X47634999Y-74260000D01*
G75*
G02*
X47385000Y-74010001I0J249999D01*
G01*
X47385000Y-73309999D01*
G75*
G02*
X47634999Y-73060000I249999J0D01*
G01*
X48885001Y-73060000D01*
G75*
G02*
X49135000Y-73309999I0J-249999D01*
G01*
X49135000Y-74010001D01*
G75*
G02*
X48885001Y-74260000I-249999J0D01*
G01*
G37*
%TD.AperFunction*%
%TD*%
D13*
%TO.P,H2,14*%
%TO.N,VBUS*%
X104140000Y-53340000D03*
%TO.P,H2,13*%
%TO.N,/AGND*%
X104140000Y-55880000D03*
%TO.P,H2,12*%
%TO.N,/VCC*%
X104140000Y-58420000D03*
%TO.P,H2,11*%
%TO.N,/X_A9*%
X104140000Y-60960000D03*
%TO.P,H2,10*%
%TO.N,/X_A8*%
X104140000Y-63500000D03*
%TO.P,H2,9*%
%TO.N,/STRIP_LED_DIN*%
X104140000Y-66040000D03*
%TO.P,H2,8*%
%TO.N,/BATTMON*%
X104140000Y-68580000D03*
%TO.P,H2,7*%
%TO.N,/BTN_ENC*%
X104140000Y-71120000D03*
%TO.P,H2,6*%
%TO.N,/SW_KILL*%
X104140000Y-73660000D03*
%TO.P,H2,5*%
%TO.N,/SDCARD_CD*%
X104140000Y-76200000D03*
%TO.P,H2,4*%
%TO.N,/BTN_EN2*%
X104140000Y-78740000D03*
%TO.P,H2,3*%
%TO.N,/BTN_EN1*%
X104140000Y-81280000D03*
%TO.P,H2,2*%
%TO.N,/SCK*%
X104140000Y-83820000D03*
D18*
%TO.P,H2,1*%
%TO.N,/X_D13*%
X104140000Y-86360000D03*
%TD*%
D13*
%TO.P,H1,14*%
%TO.N,/MISO*%
X83820000Y-86360000D03*
%TO.P,H1,13*%
%TO.N,/MOSI*%
X83820000Y-83820000D03*
%TO.P,H1,12*%
%TO.N,/SDCARD_CS*%
X83820000Y-81280000D03*
%TO.P,H1,11*%
%TO.N,/LCD_CS*%
X83820000Y-78740000D03*
%TO.P,H1,10*%
%TO.N,/LCD_A0*%
X83820000Y-76200000D03*
%TO.P,H1,9*%
%TO.N,/LCD_RST*%
X83820000Y-73660000D03*
%TO.P,H1,8*%
%TO.N,/BEEP*%
X83820000Y-71120000D03*
%TO.P,H1,7*%
%TO.N,/PANEL_LED_DIN*%
X83820000Y-68580000D03*
%TO.P,H1,6*%
%TO.N,/PGOOD*%
X83820000Y-66040000D03*
%TO.P,H1,5*%
%TO.N,/CHG*%
X83820000Y-63500000D03*
%TO.P,H1,4*%
%TO.N,/STRIP_LED_EN*%
X83820000Y-60960000D03*
%TO.P,H1,3*%
%TO.N,/DOOR2*%
X83820000Y-58420000D03*
%TO.P,H1,2*%
%TO.N,/DOOR1*%
X83820000Y-55880000D03*
D14*
%TO.P,H1,1*%
%TO.N,GND*%
X83820000Y-53340000D03*
%TD*%
D19*
%TO.N,GND*%
X69850000Y-66040000D03*
X81280000Y-62230000D03*
X69850000Y-61595000D03*
X81280000Y-59690000D03*
X81280000Y-67310000D03*
X97790000Y-55880000D03*
X91440000Y-71120000D03*
X97790000Y-69850000D03*
X97790000Y-72390000D03*
X91440000Y-73660000D03*
X91440000Y-76200000D03*
X97790000Y-74930000D03*
X97790000Y-77470000D03*
X91440000Y-78740000D03*
X91440000Y-81280000D03*
X97790000Y-80010000D03*
X91440000Y-83820000D03*
X97790000Y-82550000D03*
X97790000Y-85090000D03*
X91440000Y-86360000D03*
X62230000Y-80010000D03*
X60960000Y-81280000D03*
X50800000Y-80010000D03*
X57150000Y-74930000D03*
X66040000Y-53340000D03*
X54610000Y-53340000D03*
X80010000Y-53340000D03*
X91440000Y-53340000D03*
X69850000Y-57150000D03*
X97790000Y-58420000D03*
X91440000Y-58420000D03*
X45720000Y-86360000D03*
X45720000Y-53340000D03*
X75184000Y-81026000D03*
X70866000Y-80264000D03*
X68326000Y-80264000D03*
X63500000Y-85090000D03*
X60960000Y-85090000D03*
X63500000Y-66040000D03*
X73406000Y-80264000D03*
X91440000Y-55880000D03*
X89535000Y-62230000D03*
X89535000Y-67310000D03*
X89535000Y-59690000D03*
X69850000Y-62865000D03*
D20*
%TO.N,/STRIP_LED_DIN*%
X73660000Y-57150000D03*
%TO.N,/VLIPO*%
X64055000Y-68025000D03*
%TD*%
D21*
%TO.N,GND*%
X81280000Y-62230000D02*
X89535000Y-62230000D01*
X81280000Y-59690000D02*
X89535000Y-59690000D01*
X81280000Y-67310000D02*
X89535000Y-67310000D01*
D22*
X48260000Y-67660000D02*
X50165000Y-67660000D01*
X48260000Y-67660000D02*
X46355000Y-67660000D01*
D23*
%TO.N,/BEEP*%
X62230000Y-83820000D02*
X58420000Y-83820000D01*
X74930000Y-71120000D02*
X62230000Y-83820000D01*
X83820000Y-71120000D02*
X74930000Y-71120000D01*
%TO.N,/BTN_ENC*%
X101600000Y-71120000D02*
X95250000Y-71120000D01*
X95250000Y-71120000D02*
X93980000Y-72390000D01*
X60960000Y-86360000D02*
X58420000Y-86360000D01*
X74930000Y-72390000D02*
X60960000Y-86360000D01*
X93980000Y-72390000D02*
X74930000Y-72390000D01*
%TO.N,/PANEL_LED_DIN*%
X54515001Y-85184999D02*
X53340000Y-86360000D01*
X57055001Y-84384001D02*
X56254003Y-85184999D01*
X57950998Y-82550000D02*
X57055001Y-83445997D01*
X57055001Y-83445997D02*
X57055001Y-84384001D01*
X62230000Y-82550000D02*
X57950998Y-82550000D01*
X76200000Y-68580000D02*
X62230000Y-82550000D01*
X56254003Y-85184999D02*
X54515001Y-85184999D01*
X83820000Y-68580000D02*
X76200000Y-68580000D01*
%TO.N,/SCK*%
X80010000Y-86360000D02*
X76200000Y-86360000D01*
X80010000Y-86360000D02*
X78740000Y-86360000D01*
X81185001Y-85184999D02*
X80010000Y-86360000D01*
X93980000Y-85090000D02*
X81185001Y-85184999D01*
X95250000Y-83820000D02*
X93980000Y-85090000D01*
X101600000Y-83820000D02*
X95250000Y-83820000D01*
%TO.N,/BTN_EN1*%
X95250000Y-81280000D02*
X101600000Y-81280000D01*
X93980000Y-82550000D02*
X95250000Y-81280000D01*
X74930000Y-82550000D02*
X93980000Y-82550000D01*
X73660000Y-83820000D02*
X74930000Y-82550000D01*
%TO.N,/BTN_EN2*%
X95250000Y-78740000D02*
X101600000Y-78740000D01*
X93980000Y-80010000D02*
X95250000Y-78740000D01*
X74930000Y-80010000D02*
X93980000Y-80010000D01*
X71120000Y-83820000D02*
X74930000Y-80010000D01*
%TO.N,/MOSI*%
X72390000Y-85090000D02*
X71120000Y-86360000D01*
X78740000Y-85090000D02*
X72390000Y-85090000D01*
X80010000Y-83820000D02*
X78740000Y-85090000D01*
X83820000Y-83820000D02*
X80010000Y-83820000D01*
%TO.N,/SDCARD_CD*%
X101600000Y-76200000D02*
X95250000Y-76200000D01*
X95250000Y-76200000D02*
X93980000Y-77470000D01*
X74930000Y-77470000D02*
X68580000Y-83820000D01*
X93980000Y-77470000D02*
X74930000Y-77470000D01*
%TO.N,/SW_KILL*%
X101600000Y-73660000D02*
X95250000Y-73660000D01*
X95250000Y-73660000D02*
X93980000Y-74930000D01*
X67215001Y-85184999D02*
X66040000Y-86360000D01*
X67215001Y-82644999D02*
X67215001Y-85184999D01*
X74930000Y-74930000D02*
X67215001Y-82644999D01*
X93980000Y-74930000D02*
X74930000Y-74930000D01*
%TO.N,/STRIP_LED_DIN*%
X100330000Y-64770000D02*
X101600000Y-66040000D01*
X100330000Y-58420000D02*
X100330000Y-64770000D01*
X99154999Y-57244999D02*
X100330000Y-58420000D01*
X73754999Y-57244999D02*
X99060000Y-57244999D01*
X73660000Y-57150000D02*
X73754999Y-57244999D01*
%TO.N,/DOOR2*%
X48260000Y-53340000D02*
X48260000Y-53380000D01*
X48300000Y-53340000D02*
X48300000Y-53380000D01*
X53340000Y-58420000D02*
X48300000Y-53340000D01*
X83820000Y-58420000D02*
X53340000Y-58420000D01*
%TO.N,/DOOR1*%
X62230000Y-55880000D02*
X59690000Y-53340000D01*
X83820000Y-55880000D02*
X62230000Y-55880000D01*
%TO.N,/CHG*%
X83820000Y-63500000D02*
X82550000Y-63500000D01*
X82550000Y-63500000D02*
X81280000Y-64770000D01*
X81280000Y-64770000D02*
X76200000Y-64770000D01*
X69310000Y-71660000D02*
X48260000Y-71660000D01*
X76200000Y-64770000D02*
X69310000Y-71660000D01*
%TO.N,/PGOOD*%
X76200000Y-66040000D02*
X83820000Y-66040000D01*
X68580000Y-73660000D02*
X76200000Y-66040000D01*
X48260000Y-73660000D02*
X68580000Y-73660000D01*
%TO.N,/VLIPO*%
X63500000Y-68580000D02*
X64055000Y-68025000D01*
X51180000Y-65660000D02*
X54100000Y-68580000D01*
X48260000Y-65660000D02*
X51180000Y-65660000D01*
X54100000Y-68580000D02*
X63500000Y-68580000D01*
D21*
%TO.N,VBUS*%
X95250000Y-53340000D02*
X101600000Y-53340000D01*
X93980000Y-54610000D02*
X95250000Y-53340000D01*
X72495010Y-54715010D02*
X83134988Y-54715010D01*
X71200000Y-53420000D02*
X72495010Y-54715010D01*
X83239998Y-54610000D02*
X93980000Y-54610000D01*
X83134988Y-54715010D02*
X83239998Y-54610000D01*
X71200000Y-53340000D02*
X71200000Y-53420000D01*
%TD*%
D24*
%TO.N,GND*%
X64555000Y-83947002D02*
X64719185Y-83947002D01*
X64598519Y-84176891D01*
X64695843Y-84451252D01*
X64844822Y-84701355D01*
X65021626Y-84897502D01*
X64945820Y-84920498D01*
X64835506Y-84979463D01*
X64738815Y-85058815D01*
X64659463Y-85155506D01*
X64600498Y-85265820D01*
X64564188Y-85385518D01*
X64551928Y-85510000D01*
X64551928Y-86970000D01*
X61414707Y-86970000D01*
X61500001Y-86900001D01*
X61523804Y-86870997D01*
X64555000Y-83839801D01*
X64555000Y-83947002D01*
%TA.AperFunction,Conductor*%
D25*
G36*
X64555000Y-83947002D02*
G01*
X64719185Y-83947002D01*
X64598519Y-84176891D01*
X64695843Y-84451252D01*
X64844822Y-84701355D01*
X65021626Y-84897502D01*
X64945820Y-84920498D01*
X64835506Y-84979463D01*
X64738815Y-85058815D01*
X64659463Y-85155506D01*
X64600498Y-85265820D01*
X64564188Y-85385518D01*
X64551928Y-85510000D01*
X64551928Y-86970000D01*
X61414707Y-86970000D01*
X61500001Y-86900001D01*
X61523804Y-86870997D01*
X64555000Y-83839801D01*
X64555000Y-83947002D01*
G37*
%TD.AperFunction*%
D24*
X100485363Y-84734759D02*
X100685241Y-84934637D01*
X100917759Y-85090000D01*
X100685241Y-85245363D01*
X100485363Y-85445241D01*
X100328320Y-85680273D01*
X100220147Y-85941426D01*
X100165000Y-86218665D01*
X100165000Y-86501335D01*
X100220147Y-86778574D01*
X100299438Y-86970000D01*
X87660562Y-86970000D01*
X87739853Y-86778574D01*
X87795000Y-86501335D01*
X87795000Y-86218665D01*
X87739853Y-85941426D01*
X87721240Y-85896490D01*
X93945483Y-85850276D01*
X93980000Y-85853676D01*
X94020145Y-85849722D01*
X94022974Y-85849701D01*
X94057349Y-85846058D01*
X94128985Y-85839002D01*
X94131706Y-85838177D01*
X94134543Y-85837876D01*
X94203348Y-85816445D01*
X94272246Y-85795546D01*
X94274760Y-85794202D01*
X94277477Y-85793356D01*
X94340717Y-85758947D01*
X94404276Y-85724974D01*
X94406478Y-85723167D01*
X94408979Y-85721806D01*
X94464313Y-85675702D01*
X94491002Y-85653799D01*
X94493002Y-85651799D01*
X94523995Y-85625976D01*
X94545798Y-85599003D01*
X95564802Y-84580000D01*
X100381957Y-84580000D01*
X100485363Y-84734759D01*
%TA.AperFunction,Conductor*%
D25*
G36*
X100485363Y-84734759D02*
G01*
X100685241Y-84934637D01*
X100917759Y-85090000D01*
X100685241Y-85245363D01*
X100485363Y-85445241D01*
X100328320Y-85680273D01*
X100220147Y-85941426D01*
X100165000Y-86218665D01*
X100165000Y-86501335D01*
X100220147Y-86778574D01*
X100299438Y-86970000D01*
X87660562Y-86970000D01*
X87739853Y-86778574D01*
X87795000Y-86501335D01*
X87795000Y-86218665D01*
X87739853Y-85941426D01*
X87721240Y-85896490D01*
X93945483Y-85850276D01*
X93980000Y-85853676D01*
X94020145Y-85849722D01*
X94022974Y-85849701D01*
X94057349Y-85846058D01*
X94128985Y-85839002D01*
X94131706Y-85838177D01*
X94134543Y-85837876D01*
X94203348Y-85816445D01*
X94272246Y-85795546D01*
X94274760Y-85794202D01*
X94277477Y-85793356D01*
X94340717Y-85758947D01*
X94404276Y-85724974D01*
X94406478Y-85723167D01*
X94408979Y-85721806D01*
X94464313Y-85675702D01*
X94491002Y-85653799D01*
X94493002Y-85651799D01*
X94523995Y-85625976D01*
X94545798Y-85599003D01*
X95564802Y-84580000D01*
X100381957Y-84580000D01*
X100485363Y-84734759D01*
G37*
%TD.AperFunction*%
D24*
X46836487Y-52898889D02*
X46815000Y-53117050D01*
X46815000Y-53562949D01*
X46836487Y-53781110D01*
X46921401Y-54061033D01*
X47059294Y-54319013D01*
X47244866Y-54545134D01*
X47470986Y-54730706D01*
X47728966Y-54868599D01*
X48008889Y-54953513D01*
X48300000Y-54982185D01*
X48591110Y-54953513D01*
X48774913Y-54897757D01*
X52775244Y-58929838D01*
X52799999Y-58960001D01*
X52856704Y-59006537D01*
X52913217Y-59053292D01*
X52914553Y-59054013D01*
X52915724Y-59054974D01*
X52980448Y-59089570D01*
X53044967Y-59124385D01*
X53046414Y-59124830D01*
X53047753Y-59125546D01*
X53118050Y-59146870D01*
X53188055Y-59168408D01*
X53189562Y-59168562D01*
X53191014Y-59169003D01*
X53264050Y-59176196D01*
X53336981Y-59183671D01*
X53375826Y-59180000D01*
X82541822Y-59180000D01*
X82666525Y-59366632D01*
X82873368Y-59573475D01*
X83047760Y-59690000D01*
X82873368Y-59806525D01*
X82666525Y-60013368D01*
X82504010Y-60256589D01*
X82392068Y-60526842D01*
X82335000Y-60813740D01*
X82335000Y-61106260D01*
X82392068Y-61393158D01*
X82504010Y-61663411D01*
X82666525Y-61906632D01*
X82873368Y-62113475D01*
X83047760Y-62230000D01*
X82873368Y-62346525D01*
X82666525Y-62553368D01*
X82543875Y-62736927D01*
X82512676Y-62740000D01*
X82512667Y-62740000D01*
X82401014Y-62750997D01*
X82257753Y-62794454D01*
X82125724Y-62865026D01*
X82009999Y-62959999D01*
X81986201Y-62988997D01*
X80965199Y-64010000D01*
X76237322Y-64010000D01*
X76199999Y-64006324D01*
X76162676Y-64010000D01*
X76162667Y-64010000D01*
X76051014Y-64020997D01*
X75907753Y-64064454D01*
X75775724Y-64135026D01*
X75775722Y-64135027D01*
X75775723Y-64135027D01*
X75688996Y-64206201D01*
X75688992Y-64206205D01*
X75659999Y-64229999D01*
X75636205Y-64258992D01*
X68995199Y-70900000D01*
X49508933Y-70900000D01*
X49412502Y-70782498D01*
X49263238Y-70660000D01*
X49412502Y-70537502D01*
X49566833Y-70349449D01*
X49681511Y-70134901D01*
X49752130Y-69902102D01*
X49775975Y-69660000D01*
X49752130Y-69417898D01*
X49681511Y-69185099D01*
X49566833Y-68970551D01*
X49412502Y-68782498D01*
X49262652Y-68659519D01*
X49326725Y-68616307D01*
X49498078Y-68443474D01*
X49632421Y-68240533D01*
X49724591Y-68015282D01*
X49728462Y-67977609D01*
X49603731Y-67787000D01*
X48387000Y-67787000D01*
X48387000Y-67807000D01*
X48133000Y-67807000D01*
X48133000Y-67787000D01*
X46916269Y-67787000D01*
X46791538Y-67977609D01*
X46795409Y-68015282D01*
X46887579Y-68240533D01*
X47021922Y-68443474D01*
X47193275Y-68616307D01*
X47257348Y-68659519D01*
X47107498Y-68782498D01*
X46953167Y-68970551D01*
X46838489Y-69185099D01*
X46767870Y-69417898D01*
X46744025Y-69660000D01*
X46767870Y-69902102D01*
X46838489Y-70134901D01*
X46953167Y-70349449D01*
X47107498Y-70537502D01*
X47256762Y-70660000D01*
X47107498Y-70782498D01*
X46953167Y-70970551D01*
X46838489Y-71185099D01*
X46767870Y-71417898D01*
X46744025Y-71660000D01*
X46767870Y-71902102D01*
X46838489Y-72134901D01*
X46953167Y-72349449D01*
X47107498Y-72537502D01*
X47146111Y-72569191D01*
X47141613Y-72571595D01*
X47007038Y-72682038D01*
X46896595Y-72816613D01*
X46814528Y-72970149D01*
X46763992Y-73136745D01*
X46746928Y-73309999D01*
X46746928Y-74010001D01*
X46763992Y-74183255D01*
X46814528Y-74349851D01*
X46896595Y-74503387D01*
X47007038Y-74637962D01*
X47141613Y-74748405D01*
X47295149Y-74830472D01*
X47461745Y-74881008D01*
X47634999Y-74898072D01*
X48885001Y-74898072D01*
X49058255Y-74881008D01*
X49224851Y-74830472D01*
X49378387Y-74748405D01*
X49512962Y-74637962D01*
X49623405Y-74503387D01*
X49667976Y-74420000D01*
X68542678Y-74420000D01*
X68580000Y-74423676D01*
X68617322Y-74420000D01*
X68617333Y-74420000D01*
X68728986Y-74409003D01*
X68872247Y-74365546D01*
X69004276Y-74294974D01*
X69120001Y-74200001D01*
X69143804Y-74170997D01*
X76514802Y-66800000D01*
X82541822Y-66800000D01*
X82666525Y-66986632D01*
X82873368Y-67193475D01*
X83047760Y-67310000D01*
X82873368Y-67426525D01*
X82666525Y-67633368D01*
X82541822Y-67820000D01*
X76237322Y-67820000D01*
X76199999Y-67816324D01*
X76162676Y-67820000D01*
X76162667Y-67820000D01*
X76051014Y-67830997D01*
X75907753Y-67874454D01*
X75775724Y-67945026D01*
X75775722Y-67945027D01*
X75775723Y-67945027D01*
X75688996Y-68016201D01*
X75688992Y-68016205D01*
X75659999Y-68039999D01*
X75636205Y-68068992D01*
X61915199Y-81790000D01*
X57988320Y-81790000D01*
X57950997Y-81786324D01*
X57913674Y-81790000D01*
X57913665Y-81790000D01*
X57802012Y-81800997D01*
X57658751Y-81844454D01*
X57526721Y-81915026D01*
X57443395Y-81983411D01*
X57410997Y-82009999D01*
X57387199Y-82038997D01*
X56786492Y-82639704D01*
X56583411Y-82504010D01*
X56313158Y-82392068D01*
X56026260Y-82335000D01*
X55733740Y-82335000D01*
X55446842Y-82392068D01*
X55176589Y-82504010D01*
X54933368Y-82666525D01*
X54726525Y-82873368D01*
X54610000Y-83047760D01*
X54493475Y-82873368D01*
X54286632Y-82666525D01*
X54043411Y-82504010D01*
X53773158Y-82392068D01*
X53486260Y-82335000D01*
X53193740Y-82335000D01*
X52906842Y-82392068D01*
X52636589Y-82504010D01*
X52393368Y-82666525D01*
X52186525Y-82873368D01*
X52070000Y-83047760D01*
X51953475Y-82873368D01*
X51746632Y-82666525D01*
X51503411Y-82504010D01*
X51233158Y-82392068D01*
X50946260Y-82335000D01*
X50653740Y-82335000D01*
X50366842Y-82392068D01*
X50096589Y-82504010D01*
X49853368Y-82666525D01*
X49646525Y-82873368D01*
X49524805Y-83055534D01*
X49455178Y-82938645D01*
X49260269Y-82722412D01*
X49026920Y-82548359D01*
X48764099Y-82423175D01*
X48616890Y-82378524D01*
X48387000Y-82499845D01*
X48387000Y-83693000D01*
X48407000Y-83693000D01*
X48407000Y-83947000D01*
X48387000Y-83947000D01*
X48387000Y-83967000D01*
X48133000Y-83967000D01*
X48133000Y-83947000D01*
X46939186Y-83947000D01*
X46818519Y-84176891D01*
X46915843Y-84451252D01*
X47064822Y-84701355D01*
X47241626Y-84897502D01*
X47165820Y-84920498D01*
X47055506Y-84979463D01*
X46958815Y-85058815D01*
X46879463Y-85155506D01*
X46820498Y-85265820D01*
X46784188Y-85385518D01*
X46771928Y-85510000D01*
X46771928Y-86970000D01*
X45110000Y-86970000D01*
X45110000Y-83463109D01*
X46818519Y-83463109D01*
X46939186Y-83693000D01*
X48133000Y-83693000D01*
X48133000Y-82499845D01*
X47903110Y-82378524D01*
X47755901Y-82423175D01*
X47493080Y-82548359D01*
X47259731Y-82722412D01*
X47064822Y-82938645D01*
X46915843Y-83188748D01*
X46818519Y-83463109D01*
X45110000Y-83463109D01*
X45110000Y-65660000D01*
X46744025Y-65660000D01*
X46767870Y-65902102D01*
X46838489Y-66134901D01*
X46953167Y-66349449D01*
X47107498Y-66537502D01*
X47257348Y-66660481D01*
X47193275Y-66703693D01*
X47021922Y-66876526D01*
X46887579Y-67079467D01*
X46795409Y-67304718D01*
X46791538Y-67342391D01*
X46916269Y-67533000D01*
X48133000Y-67533000D01*
X48133000Y-67513000D01*
X48387000Y-67513000D01*
X48387000Y-67533000D01*
X49603731Y-67533000D01*
X49728462Y-67342391D01*
X49724591Y-67304718D01*
X49632421Y-67079467D01*
X49498078Y-66876526D01*
X49326725Y-66703693D01*
X49262652Y-66660481D01*
X49412502Y-66537502D01*
X49508933Y-66420000D01*
X50865199Y-66420000D01*
X53536201Y-69091003D01*
X53559999Y-69120001D01*
X53588997Y-69143799D01*
X53675724Y-69214974D01*
X53807753Y-69285546D01*
X53951014Y-69329003D01*
X54100000Y-69343677D01*
X54137333Y-69340000D01*
X63462678Y-69340000D01*
X63500000Y-69343676D01*
X63537322Y-69340000D01*
X63537333Y-69340000D01*
X63648986Y-69329003D01*
X63792247Y-69285546D01*
X63924276Y-69214974D01*
X64040001Y-69120001D01*
X64063803Y-69090998D01*
X64094801Y-69060000D01*
X64156939Y-69060000D01*
X64356898Y-69020226D01*
X64545256Y-68942205D01*
X64714774Y-68828937D01*
X64858937Y-68684774D01*
X64972205Y-68515256D01*
X65050226Y-68326898D01*
X65090000Y-68126939D01*
X65090000Y-67923061D01*
X65050226Y-67723102D01*
X64972205Y-67534744D01*
X64858937Y-67365226D01*
X64714774Y-67221063D01*
X64545256Y-67107795D01*
X64356898Y-67029774D01*
X64156939Y-66990000D01*
X63953061Y-66990000D01*
X63753102Y-67029774D01*
X63564744Y-67107795D01*
X63395226Y-67221063D01*
X63251063Y-67365226D01*
X63137795Y-67534744D01*
X63059774Y-67723102D01*
X63040500Y-67820000D01*
X54414802Y-67820000D01*
X52084576Y-65489774D01*
X54069831Y-65489774D01*
X54309977Y-65877017D01*
X54803877Y-66137640D01*
X55339132Y-66296899D01*
X55895173Y-66348676D01*
X56450630Y-66290979D01*
X56984159Y-66126027D01*
X57450023Y-65877017D01*
X57690169Y-65489774D01*
X55880000Y-63679605D01*
X54069831Y-65489774D01*
X52084576Y-65489774D01*
X51743804Y-65149003D01*
X51720001Y-65119999D01*
X51604276Y-65025026D01*
X51472247Y-64954454D01*
X51328986Y-64910997D01*
X51217333Y-64900000D01*
X51217322Y-64900000D01*
X51180000Y-64896324D01*
X51142678Y-64900000D01*
X49508933Y-64900000D01*
X49412502Y-64782498D01*
X49224449Y-64628167D01*
X49009901Y-64513489D01*
X48777102Y-64442870D01*
X48595665Y-64425000D01*
X47924335Y-64425000D01*
X47742898Y-64442870D01*
X47510099Y-64513489D01*
X47295551Y-64628167D01*
X47107498Y-64782498D01*
X46953167Y-64970551D01*
X46838489Y-65185099D01*
X46767870Y-65417898D01*
X46744025Y-65660000D01*
X45110000Y-65660000D01*
X45110000Y-63515173D01*
X53031324Y-63515173D01*
X53089021Y-64070630D01*
X53253973Y-64604159D01*
X53502983Y-65070023D01*
X53890226Y-65310169D01*
X55700395Y-63500000D01*
X56059605Y-63500000D01*
X57869774Y-65310169D01*
X58257017Y-65070023D01*
X58517640Y-64576123D01*
X58676899Y-64040868D01*
X58728676Y-63484827D01*
X58670979Y-62929370D01*
X58506027Y-62395841D01*
X58257017Y-61929977D01*
X57869774Y-61689831D01*
X56059605Y-63500000D01*
X55700395Y-63500000D01*
X53890226Y-61689831D01*
X53502983Y-61929977D01*
X53242360Y-62423877D01*
X53083101Y-62959132D01*
X53031324Y-63515173D01*
X45110000Y-63515173D01*
X45110000Y-61510226D01*
X54069831Y-61510226D01*
X55880000Y-63320395D01*
X57690169Y-61510226D01*
X57450023Y-61122983D01*
X56956123Y-60862360D01*
X56420868Y-60703101D01*
X55864827Y-60651324D01*
X55309370Y-60709021D01*
X54775841Y-60873973D01*
X54309977Y-61122983D01*
X54069831Y-61510226D01*
X45110000Y-61510226D01*
X45110000Y-52730000D01*
X46887719Y-52730000D01*
X46836487Y-52898889D01*
%TA.AperFunction,Conductor*%
D25*
G36*
X46836487Y-52898889D02*
G01*
X46815000Y-53117050D01*
X46815000Y-53562949D01*
X46836487Y-53781110D01*
X46921401Y-54061033D01*
X47059294Y-54319013D01*
X47244866Y-54545134D01*
X47470986Y-54730706D01*
X47728966Y-54868599D01*
X48008889Y-54953513D01*
X48300000Y-54982185D01*
X48591110Y-54953513D01*
X48774913Y-54897757D01*
X52775244Y-58929838D01*
X52799999Y-58960001D01*
X52856704Y-59006537D01*
X52913217Y-59053292D01*
X52914553Y-59054013D01*
X52915724Y-59054974D01*
X52980448Y-59089570D01*
X53044967Y-59124385D01*
X53046414Y-59124830D01*
X53047753Y-59125546D01*
X53118050Y-59146870D01*
X53188055Y-59168408D01*
X53189562Y-59168562D01*
X53191014Y-59169003D01*
X53264050Y-59176196D01*
X53336981Y-59183671D01*
X53375826Y-59180000D01*
X82541822Y-59180000D01*
X82666525Y-59366632D01*
X82873368Y-59573475D01*
X83047760Y-59690000D01*
X82873368Y-59806525D01*
X82666525Y-60013368D01*
X82504010Y-60256589D01*
X82392068Y-60526842D01*
X82335000Y-60813740D01*
X82335000Y-61106260D01*
X82392068Y-61393158D01*
X82504010Y-61663411D01*
X82666525Y-61906632D01*
X82873368Y-62113475D01*
X83047760Y-62230000D01*
X82873368Y-62346525D01*
X82666525Y-62553368D01*
X82543875Y-62736927D01*
X82512676Y-62740000D01*
X82512667Y-62740000D01*
X82401014Y-62750997D01*
X82257753Y-62794454D01*
X82125724Y-62865026D01*
X82009999Y-62959999D01*
X81986201Y-62988997D01*
X80965199Y-64010000D01*
X76237322Y-64010000D01*
X76199999Y-64006324D01*
X76162676Y-64010000D01*
X76162667Y-64010000D01*
X76051014Y-64020997D01*
X75907753Y-64064454D01*
X75775724Y-64135026D01*
X75775722Y-64135027D01*
X75775723Y-64135027D01*
X75688996Y-64206201D01*
X75688992Y-64206205D01*
X75659999Y-64229999D01*
X75636205Y-64258992D01*
X68995199Y-70900000D01*
X49508933Y-70900000D01*
X49412502Y-70782498D01*
X49263238Y-70660000D01*
X49412502Y-70537502D01*
X49566833Y-70349449D01*
X49681511Y-70134901D01*
X49752130Y-69902102D01*
X49775975Y-69660000D01*
X49752130Y-69417898D01*
X49681511Y-69185099D01*
X49566833Y-68970551D01*
X49412502Y-68782498D01*
X49262652Y-68659519D01*
X49326725Y-68616307D01*
X49498078Y-68443474D01*
X49632421Y-68240533D01*
X49724591Y-68015282D01*
X49728462Y-67977609D01*
X49603731Y-67787000D01*
X48387000Y-67787000D01*
X48387000Y-67807000D01*
X48133000Y-67807000D01*
X48133000Y-67787000D01*
X46916269Y-67787000D01*
X46791538Y-67977609D01*
X46795409Y-68015282D01*
X46887579Y-68240533D01*
X47021922Y-68443474D01*
X47193275Y-68616307D01*
X47257348Y-68659519D01*
X47107498Y-68782498D01*
X46953167Y-68970551D01*
X46838489Y-69185099D01*
X46767870Y-69417898D01*
X46744025Y-69660000D01*
X46767870Y-69902102D01*
X46838489Y-70134901D01*
X46953167Y-70349449D01*
X47107498Y-70537502D01*
X47256762Y-70660000D01*
X47107498Y-70782498D01*
X46953167Y-70970551D01*
X46838489Y-71185099D01*
X46767870Y-71417898D01*
X46744025Y-71660000D01*
X46767870Y-71902102D01*
X46838489Y-72134901D01*
X46953167Y-72349449D01*
X47107498Y-72537502D01*
X47146111Y-72569191D01*
X47141613Y-72571595D01*
X47007038Y-72682038D01*
X46896595Y-72816613D01*
X46814528Y-72970149D01*
X46763992Y-73136745D01*
X46746928Y-73309999D01*
X46746928Y-74010001D01*
X46763992Y-74183255D01*
X46814528Y-74349851D01*
X46896595Y-74503387D01*
X47007038Y-74637962D01*
X47141613Y-74748405D01*
X47295149Y-74830472D01*
X47461745Y-74881008D01*
X47634999Y-74898072D01*
X48885001Y-74898072D01*
X49058255Y-74881008D01*
X49224851Y-74830472D01*
X49378387Y-74748405D01*
X49512962Y-74637962D01*
X49623405Y-74503387D01*
X49667976Y-74420000D01*
X68542678Y-74420000D01*
X68580000Y-74423676D01*
X68617322Y-74420000D01*
X68617333Y-74420000D01*
X68728986Y-74409003D01*
X68872247Y-74365546D01*
X69004276Y-74294974D01*
X69120001Y-74200001D01*
X69143804Y-74170997D01*
X76514802Y-66800000D01*
X82541822Y-66800000D01*
X82666525Y-66986632D01*
X82873368Y-67193475D01*
X83047760Y-67310000D01*
X82873368Y-67426525D01*
X82666525Y-67633368D01*
X82541822Y-67820000D01*
X76237322Y-67820000D01*
X76199999Y-67816324D01*
X76162676Y-67820000D01*
X76162667Y-67820000D01*
X76051014Y-67830997D01*
X75907753Y-67874454D01*
X75775724Y-67945026D01*
X75775722Y-67945027D01*
X75775723Y-67945027D01*
X75688996Y-68016201D01*
X75688992Y-68016205D01*
X75659999Y-68039999D01*
X75636205Y-68068992D01*
X61915199Y-81790000D01*
X57988320Y-81790000D01*
X57950997Y-81786324D01*
X57913674Y-81790000D01*
X57913665Y-81790000D01*
X57802012Y-81800997D01*
X57658751Y-81844454D01*
X57526721Y-81915026D01*
X57443395Y-81983411D01*
X57410997Y-82009999D01*
X57387199Y-82038997D01*
X56786492Y-82639704D01*
X56583411Y-82504010D01*
X56313158Y-82392068D01*
X56026260Y-82335000D01*
X55733740Y-82335000D01*
X55446842Y-82392068D01*
X55176589Y-82504010D01*
X54933368Y-82666525D01*
X54726525Y-82873368D01*
X54610000Y-83047760D01*
X54493475Y-82873368D01*
X54286632Y-82666525D01*
X54043411Y-82504010D01*
X53773158Y-82392068D01*
X53486260Y-82335000D01*
X53193740Y-82335000D01*
X52906842Y-82392068D01*
X52636589Y-82504010D01*
X52393368Y-82666525D01*
X52186525Y-82873368D01*
X52070000Y-83047760D01*
X51953475Y-82873368D01*
X51746632Y-82666525D01*
X51503411Y-82504010D01*
X51233158Y-82392068D01*
X50946260Y-82335000D01*
X50653740Y-82335000D01*
X50366842Y-82392068D01*
X50096589Y-82504010D01*
X49853368Y-82666525D01*
X49646525Y-82873368D01*
X49524805Y-83055534D01*
X49455178Y-82938645D01*
X49260269Y-82722412D01*
X49026920Y-82548359D01*
X48764099Y-82423175D01*
X48616890Y-82378524D01*
X48387000Y-82499845D01*
X48387000Y-83693000D01*
X48407000Y-83693000D01*
X48407000Y-83947000D01*
X48387000Y-83947000D01*
X48387000Y-83967000D01*
X48133000Y-83967000D01*
X48133000Y-83947000D01*
X46939186Y-83947000D01*
X46818519Y-84176891D01*
X46915843Y-84451252D01*
X47064822Y-84701355D01*
X47241626Y-84897502D01*
X47165820Y-84920498D01*
X47055506Y-84979463D01*
X46958815Y-85058815D01*
X46879463Y-85155506D01*
X46820498Y-85265820D01*
X46784188Y-85385518D01*
X46771928Y-85510000D01*
X46771928Y-86970000D01*
X45110000Y-86970000D01*
X45110000Y-83463109D01*
X46818519Y-83463109D01*
X46939186Y-83693000D01*
X48133000Y-83693000D01*
X48133000Y-82499845D01*
X47903110Y-82378524D01*
X47755901Y-82423175D01*
X47493080Y-82548359D01*
X47259731Y-82722412D01*
X47064822Y-82938645D01*
X46915843Y-83188748D01*
X46818519Y-83463109D01*
X45110000Y-83463109D01*
X45110000Y-65660000D01*
X46744025Y-65660000D01*
X46767870Y-65902102D01*
X46838489Y-66134901D01*
X46953167Y-66349449D01*
X47107498Y-66537502D01*
X47257348Y-66660481D01*
X47193275Y-66703693D01*
X47021922Y-66876526D01*
X46887579Y-67079467D01*
X46795409Y-67304718D01*
X46791538Y-67342391D01*
X46916269Y-67533000D01*
X48133000Y-67533000D01*
X48133000Y-67513000D01*
X48387000Y-67513000D01*
X48387000Y-67533000D01*
X49603731Y-67533000D01*
X49728462Y-67342391D01*
X49724591Y-67304718D01*
X49632421Y-67079467D01*
X49498078Y-66876526D01*
X49326725Y-66703693D01*
X49262652Y-66660481D01*
X49412502Y-66537502D01*
X49508933Y-66420000D01*
X50865199Y-66420000D01*
X53536201Y-69091003D01*
X53559999Y-69120001D01*
X53588997Y-69143799D01*
X53675724Y-69214974D01*
X53807753Y-69285546D01*
X53951014Y-69329003D01*
X54100000Y-69343677D01*
X54137333Y-69340000D01*
X63462678Y-69340000D01*
X63500000Y-69343676D01*
X63537322Y-69340000D01*
X63537333Y-69340000D01*
X63648986Y-69329003D01*
X63792247Y-69285546D01*
X63924276Y-69214974D01*
X64040001Y-69120001D01*
X64063803Y-69090998D01*
X64094801Y-69060000D01*
X64156939Y-69060000D01*
X64356898Y-69020226D01*
X64545256Y-68942205D01*
X64714774Y-68828937D01*
X64858937Y-68684774D01*
X64972205Y-68515256D01*
X65050226Y-68326898D01*
X65090000Y-68126939D01*
X65090000Y-67923061D01*
X65050226Y-67723102D01*
X64972205Y-67534744D01*
X64858937Y-67365226D01*
X64714774Y-67221063D01*
X64545256Y-67107795D01*
X64356898Y-67029774D01*
X64156939Y-66990000D01*
X63953061Y-66990000D01*
X63753102Y-67029774D01*
X63564744Y-67107795D01*
X63395226Y-67221063D01*
X63251063Y-67365226D01*
X63137795Y-67534744D01*
X63059774Y-67723102D01*
X63040500Y-67820000D01*
X54414802Y-67820000D01*
X52084576Y-65489774D01*
X54069831Y-65489774D01*
X54309977Y-65877017D01*
X54803877Y-66137640D01*
X55339132Y-66296899D01*
X55895173Y-66348676D01*
X56450630Y-66290979D01*
X56984159Y-66126027D01*
X57450023Y-65877017D01*
X57690169Y-65489774D01*
X55880000Y-63679605D01*
X54069831Y-65489774D01*
X52084576Y-65489774D01*
X51743804Y-65149003D01*
X51720001Y-65119999D01*
X51604276Y-65025026D01*
X51472247Y-64954454D01*
X51328986Y-64910997D01*
X51217333Y-64900000D01*
X51217322Y-64900000D01*
X51180000Y-64896324D01*
X51142678Y-64900000D01*
X49508933Y-64900000D01*
X49412502Y-64782498D01*
X49224449Y-64628167D01*
X49009901Y-64513489D01*
X48777102Y-64442870D01*
X48595665Y-64425000D01*
X47924335Y-64425000D01*
X47742898Y-64442870D01*
X47510099Y-64513489D01*
X47295551Y-64628167D01*
X47107498Y-64782498D01*
X46953167Y-64970551D01*
X46838489Y-65185099D01*
X46767870Y-65417898D01*
X46744025Y-65660000D01*
X45110000Y-65660000D01*
X45110000Y-63515173D01*
X53031324Y-63515173D01*
X53089021Y-64070630D01*
X53253973Y-64604159D01*
X53502983Y-65070023D01*
X53890226Y-65310169D01*
X55700395Y-63500000D01*
X56059605Y-63500000D01*
X57869774Y-65310169D01*
X58257017Y-65070023D01*
X58517640Y-64576123D01*
X58676899Y-64040868D01*
X58728676Y-63484827D01*
X58670979Y-62929370D01*
X58506027Y-62395841D01*
X58257017Y-61929977D01*
X57869774Y-61689831D01*
X56059605Y-63500000D01*
X55700395Y-63500000D01*
X53890226Y-61689831D01*
X53502983Y-61929977D01*
X53242360Y-62423877D01*
X53083101Y-62959132D01*
X53031324Y-63515173D01*
X45110000Y-63515173D01*
X45110000Y-61510226D01*
X54069831Y-61510226D01*
X55880000Y-63320395D01*
X57690169Y-61510226D01*
X57450023Y-61122983D01*
X56956123Y-60862360D01*
X56420868Y-60703101D01*
X55864827Y-60651324D01*
X55309370Y-60709021D01*
X54775841Y-60873973D01*
X54309977Y-61122983D01*
X54069831Y-61510226D01*
X45110000Y-61510226D01*
X45110000Y-52730000D01*
X46887719Y-52730000D01*
X46836487Y-52898889D01*
G37*
%TD.AperFunction*%
D24*
X60645199Y-85600000D02*
X59698178Y-85600000D01*
X59573475Y-85413368D01*
X59366632Y-85206525D01*
X59192240Y-85090000D01*
X59366632Y-84973475D01*
X59573475Y-84766632D01*
X59698178Y-84580000D01*
X61665199Y-84580000D01*
X60645199Y-85600000D01*
%TA.AperFunction,Conductor*%
D25*
G36*
X60645199Y-85600000D02*
G01*
X59698178Y-85600000D01*
X59573475Y-85413368D01*
X59366632Y-85206525D01*
X59192240Y-85090000D01*
X59366632Y-84973475D01*
X59573475Y-84766632D01*
X59698178Y-84580000D01*
X61665199Y-84580000D01*
X60645199Y-85600000D01*
G37*
%TD.AperFunction*%
D24*
X100485363Y-82194759D02*
X100685241Y-82394637D01*
X100917759Y-82550000D01*
X100685241Y-82705363D01*
X100485363Y-82905241D01*
X100381957Y-83060000D01*
X95287322Y-83060000D01*
X95249999Y-83056324D01*
X95212676Y-83060000D01*
X95212667Y-83060000D01*
X95101014Y-83070997D01*
X94957753Y-83114454D01*
X94825724Y-83185026D01*
X94709999Y-83279999D01*
X94686201Y-83308997D01*
X93662865Y-84332334D01*
X87682625Y-84376736D01*
X87739853Y-84238574D01*
X87795000Y-83961335D01*
X87795000Y-83678665D01*
X87739853Y-83401426D01*
X87701983Y-83310000D01*
X93942678Y-83310000D01*
X93980000Y-83313676D01*
X94017322Y-83310000D01*
X94017333Y-83310000D01*
X94128986Y-83299003D01*
X94272247Y-83255546D01*
X94404276Y-83184974D01*
X94520001Y-83090001D01*
X94543804Y-83060997D01*
X95564802Y-82040000D01*
X100381957Y-82040000D01*
X100485363Y-82194759D01*
%TA.AperFunction,Conductor*%
D25*
G36*
X100485363Y-82194759D02*
G01*
X100685241Y-82394637D01*
X100917759Y-82550000D01*
X100685241Y-82705363D01*
X100485363Y-82905241D01*
X100381957Y-83060000D01*
X95287322Y-83060000D01*
X95249999Y-83056324D01*
X95212676Y-83060000D01*
X95212667Y-83060000D01*
X95101014Y-83070997D01*
X94957753Y-83114454D01*
X94825724Y-83185026D01*
X94709999Y-83279999D01*
X94686201Y-83308997D01*
X93662865Y-84332334D01*
X87682625Y-84376736D01*
X87739853Y-84238574D01*
X87795000Y-83961335D01*
X87795000Y-83678665D01*
X87739853Y-83401426D01*
X87701983Y-83310000D01*
X93942678Y-83310000D01*
X93980000Y-83313676D01*
X94017322Y-83310000D01*
X94017333Y-83310000D01*
X94128986Y-83299003D01*
X94272247Y-83255546D01*
X94404276Y-83184974D01*
X94520001Y-83090001D01*
X94543804Y-83060997D01*
X95564802Y-82040000D01*
X100381957Y-82040000D01*
X100485363Y-82194759D01*
G37*
%TD.AperFunction*%
D24*
X66167000Y-83693000D02*
X66187000Y-83693000D01*
X66187000Y-83947000D01*
X66167000Y-83947000D01*
X66167000Y-83967000D01*
X65913000Y-83967000D01*
X65913000Y-83947000D01*
X65893000Y-83947000D01*
X65893000Y-83693000D01*
X65913000Y-83693000D01*
X65913000Y-83673000D01*
X66167000Y-83673000D01*
X66167000Y-83693000D01*
%TA.AperFunction,Conductor*%
D25*
G36*
X66167000Y-83693000D02*
G01*
X66187000Y-83693000D01*
X66187000Y-83947000D01*
X66167000Y-83947000D01*
X66167000Y-83967000D01*
X65913000Y-83967000D01*
X65913000Y-83947000D01*
X65893000Y-83947000D01*
X65893000Y-83693000D01*
X65913000Y-83693000D01*
X65913000Y-83673000D01*
X66167000Y-83673000D01*
X66167000Y-83693000D01*
G37*
%TD.AperFunction*%
D24*
X82392068Y-73226842D02*
X82335000Y-73513740D01*
X82335000Y-73806260D01*
X82392068Y-74093158D01*
X82423897Y-74170000D01*
X74967322Y-74170000D01*
X74929999Y-74166324D01*
X74892676Y-74170000D01*
X74892667Y-74170000D01*
X74781014Y-74180997D01*
X74637753Y-74224454D01*
X74505724Y-74295026D01*
X74389999Y-74389999D01*
X74366201Y-74418997D01*
X66704004Y-82081195D01*
X66675000Y-82104998D01*
X66619872Y-82172173D01*
X66580027Y-82220723D01*
X66518944Y-82335000D01*
X66509455Y-82352753D01*
X66492812Y-82407619D01*
X66396890Y-82378524D01*
X66167002Y-82499844D01*
X66167002Y-82335000D01*
X66059801Y-82335000D01*
X75244803Y-73150000D01*
X82423897Y-73150000D01*
X82392068Y-73226842D01*
%TA.AperFunction,Conductor*%
D25*
G36*
X82392068Y-73226842D02*
G01*
X82335000Y-73513740D01*
X82335000Y-73806260D01*
X82392068Y-74093158D01*
X82423897Y-74170000D01*
X74967322Y-74170000D01*
X74929999Y-74166324D01*
X74892676Y-74170000D01*
X74892667Y-74170000D01*
X74781014Y-74180997D01*
X74637753Y-74224454D01*
X74505724Y-74295026D01*
X74389999Y-74389999D01*
X74366201Y-74418997D01*
X66704004Y-82081195D01*
X66675000Y-82104998D01*
X66619872Y-82172173D01*
X66580027Y-82220723D01*
X66518944Y-82335000D01*
X66509455Y-82352753D01*
X66492812Y-82407619D01*
X66396890Y-82378524D01*
X66167002Y-82499844D01*
X66167002Y-82335000D01*
X66059801Y-82335000D01*
X75244803Y-73150000D01*
X82423897Y-73150000D01*
X82392068Y-73226842D01*
G37*
%TD.AperFunction*%
D24*
X82392068Y-75766842D02*
X82335000Y-76053740D01*
X82335000Y-76346260D01*
X82392068Y-76633158D01*
X82423897Y-76710000D01*
X74967322Y-76710000D01*
X74929999Y-76706324D01*
X74892676Y-76710000D01*
X74892667Y-76710000D01*
X74781014Y-76720997D01*
X74637753Y-76764454D01*
X74505723Y-76835026D01*
X74422397Y-76903411D01*
X74389999Y-76929999D01*
X74366201Y-76958997D01*
X68946408Y-82378791D01*
X68726260Y-82335000D01*
X68599801Y-82335000D01*
X75244802Y-75690000D01*
X82423897Y-75690000D01*
X82392068Y-75766842D01*
%TA.AperFunction,Conductor*%
D25*
G36*
X82392068Y-75766842D02*
G01*
X82335000Y-76053740D01*
X82335000Y-76346260D01*
X82392068Y-76633158D01*
X82423897Y-76710000D01*
X74967322Y-76710000D01*
X74929999Y-76706324D01*
X74892676Y-76710000D01*
X74892667Y-76710000D01*
X74781014Y-76720997D01*
X74637753Y-76764454D01*
X74505723Y-76835026D01*
X74422397Y-76903411D01*
X74389999Y-76929999D01*
X74366201Y-76958997D01*
X68946408Y-82378791D01*
X68726260Y-82335000D01*
X68599801Y-82335000D01*
X75244802Y-75690000D01*
X82423897Y-75690000D01*
X82392068Y-75766842D01*
G37*
%TD.AperFunction*%
D24*
X82392068Y-78306842D02*
X82335000Y-78593740D01*
X82335000Y-78886260D01*
X82392068Y-79173158D01*
X82423897Y-79250000D01*
X74967325Y-79250000D01*
X74930000Y-79246324D01*
X74892675Y-79250000D01*
X74892667Y-79250000D01*
X74781014Y-79260997D01*
X74637753Y-79304454D01*
X74505724Y-79375026D01*
X74389999Y-79469999D01*
X74366201Y-79498997D01*
X71486408Y-82378791D01*
X71266260Y-82335000D01*
X71139801Y-82335000D01*
X75244802Y-78230000D01*
X82423897Y-78230000D01*
X82392068Y-78306842D01*
%TA.AperFunction,Conductor*%
D25*
G36*
X82392068Y-78306842D02*
G01*
X82335000Y-78593740D01*
X82335000Y-78886260D01*
X82392068Y-79173158D01*
X82423897Y-79250000D01*
X74967325Y-79250000D01*
X74930000Y-79246324D01*
X74892675Y-79250000D01*
X74892667Y-79250000D01*
X74781014Y-79260997D01*
X74637753Y-79304454D01*
X74505724Y-79375026D01*
X74389999Y-79469999D01*
X74366201Y-79498997D01*
X71486408Y-82378791D01*
X71266260Y-82335000D01*
X71139801Y-82335000D01*
X75244802Y-78230000D01*
X82423897Y-78230000D01*
X82392068Y-78306842D01*
G37*
%TD.AperFunction*%
D24*
X82392068Y-80846842D02*
X82335000Y-81133740D01*
X82335000Y-81426260D01*
X82392068Y-81713158D01*
X82423897Y-81790000D01*
X74967322Y-81790000D01*
X74929999Y-81786324D01*
X74892676Y-81790000D01*
X74892667Y-81790000D01*
X74781014Y-81800997D01*
X74637753Y-81844454D01*
X74505724Y-81915026D01*
X74389999Y-82009999D01*
X74366201Y-82038997D01*
X74026408Y-82378790D01*
X73806260Y-82335000D01*
X73679802Y-82335000D01*
X75244802Y-80770000D01*
X82423897Y-80770000D01*
X82392068Y-80846842D01*
%TA.AperFunction,Conductor*%
D25*
G36*
X82392068Y-80846842D02*
G01*
X82335000Y-81133740D01*
X82335000Y-81426260D01*
X82392068Y-81713158D01*
X82423897Y-81790000D01*
X74967322Y-81790000D01*
X74929999Y-81786324D01*
X74892676Y-81790000D01*
X74892667Y-81790000D01*
X74781014Y-81800997D01*
X74637753Y-81844454D01*
X74505724Y-81915026D01*
X74389999Y-82009999D01*
X74366201Y-82038997D01*
X74026408Y-82378790D01*
X73806260Y-82335000D01*
X73679802Y-82335000D01*
X75244802Y-80770000D01*
X82423897Y-80770000D01*
X82392068Y-80846842D01*
G37*
%TD.AperFunction*%
D24*
X100485363Y-79654759D02*
X100685241Y-79854637D01*
X100917759Y-80010000D01*
X100685241Y-80165363D01*
X100485363Y-80365241D01*
X100381957Y-80520000D01*
X95287322Y-80520000D01*
X95249999Y-80516324D01*
X95212676Y-80520000D01*
X95212667Y-80520000D01*
X95101014Y-80530997D01*
X94957753Y-80574454D01*
X94825724Y-80645026D01*
X94709999Y-80739999D01*
X94686201Y-80768997D01*
X93665199Y-81790000D01*
X87701983Y-81790000D01*
X87739853Y-81698574D01*
X87795000Y-81421335D01*
X87795000Y-81138665D01*
X87739853Y-80861426D01*
X87701983Y-80770000D01*
X93942678Y-80770000D01*
X93980000Y-80773676D01*
X94017322Y-80770000D01*
X94017333Y-80770000D01*
X94128986Y-80759003D01*
X94272247Y-80715546D01*
X94404276Y-80644974D01*
X94520001Y-80550001D01*
X94543804Y-80520997D01*
X95564802Y-79500000D01*
X100381957Y-79500000D01*
X100485363Y-79654759D01*
%TA.AperFunction,Conductor*%
D25*
G36*
X100485363Y-79654759D02*
G01*
X100685241Y-79854637D01*
X100917759Y-80010000D01*
X100685241Y-80165363D01*
X100485363Y-80365241D01*
X100381957Y-80520000D01*
X95287322Y-80520000D01*
X95249999Y-80516324D01*
X95212676Y-80520000D01*
X95212667Y-80520000D01*
X95101014Y-80530997D01*
X94957753Y-80574454D01*
X94825724Y-80645026D01*
X94709999Y-80739999D01*
X94686201Y-80768997D01*
X93665199Y-81790000D01*
X87701983Y-81790000D01*
X87739853Y-81698574D01*
X87795000Y-81421335D01*
X87795000Y-81138665D01*
X87739853Y-80861426D01*
X87701983Y-80770000D01*
X93942678Y-80770000D01*
X93980000Y-80773676D01*
X94017322Y-80770000D01*
X94017333Y-80770000D01*
X94128986Y-80759003D01*
X94272247Y-80715546D01*
X94404276Y-80644974D01*
X94520001Y-80550001D01*
X94543804Y-80520997D01*
X95564802Y-79500000D01*
X100381957Y-79500000D01*
X100485363Y-79654759D01*
G37*
%TD.AperFunction*%
D24*
X100485363Y-77114759D02*
X100685241Y-77314637D01*
X100917759Y-77470000D01*
X100685241Y-77625363D01*
X100485363Y-77825241D01*
X100381957Y-77980000D01*
X95287322Y-77980000D01*
X95249999Y-77976324D01*
X95212676Y-77980000D01*
X95212667Y-77980000D01*
X95101014Y-77990997D01*
X94957753Y-78034454D01*
X94825724Y-78105026D01*
X94709999Y-78199999D01*
X94686201Y-78228997D01*
X93665199Y-79250000D01*
X87701983Y-79250000D01*
X87739853Y-79158574D01*
X87795000Y-78881335D01*
X87795000Y-78598665D01*
X87739853Y-78321426D01*
X87701983Y-78230000D01*
X93942678Y-78230000D01*
X93980000Y-78233676D01*
X94017322Y-78230000D01*
X94017333Y-78230000D01*
X94128986Y-78219003D01*
X94272247Y-78175546D01*
X94404276Y-78104974D01*
X94520001Y-78010001D01*
X94543804Y-77980997D01*
X95564802Y-76960000D01*
X100381957Y-76960000D01*
X100485363Y-77114759D01*
%TA.AperFunction,Conductor*%
D25*
G36*
X100485363Y-77114759D02*
G01*
X100685241Y-77314637D01*
X100917759Y-77470000D01*
X100685241Y-77625363D01*
X100485363Y-77825241D01*
X100381957Y-77980000D01*
X95287322Y-77980000D01*
X95249999Y-77976324D01*
X95212676Y-77980000D01*
X95212667Y-77980000D01*
X95101014Y-77990997D01*
X94957753Y-78034454D01*
X94825724Y-78105026D01*
X94709999Y-78199999D01*
X94686201Y-78228997D01*
X93665199Y-79250000D01*
X87701983Y-79250000D01*
X87739853Y-79158574D01*
X87795000Y-78881335D01*
X87795000Y-78598665D01*
X87739853Y-78321426D01*
X87701983Y-78230000D01*
X93942678Y-78230000D01*
X93980000Y-78233676D01*
X94017322Y-78230000D01*
X94017333Y-78230000D01*
X94128986Y-78219003D01*
X94272247Y-78175546D01*
X94404276Y-78104974D01*
X94520001Y-78010001D01*
X94543804Y-77980997D01*
X95564802Y-76960000D01*
X100381957Y-76960000D01*
X100485363Y-77114759D01*
G37*
%TD.AperFunction*%
D24*
X100485363Y-74574759D02*
X100685241Y-74774637D01*
X100917759Y-74930000D01*
X100685241Y-75085363D01*
X100485363Y-75285241D01*
X100381957Y-75440000D01*
X95287322Y-75440000D01*
X95249999Y-75436324D01*
X95212676Y-75440000D01*
X95212667Y-75440000D01*
X95101014Y-75450997D01*
X94957753Y-75494454D01*
X94825724Y-75565026D01*
X94709999Y-75659999D01*
X94686201Y-75688997D01*
X93665199Y-76710000D01*
X87701983Y-76710000D01*
X87739853Y-76618574D01*
X87795000Y-76341335D01*
X87795000Y-76058665D01*
X87739853Y-75781426D01*
X87701983Y-75690000D01*
X93942678Y-75690000D01*
X93980000Y-75693676D01*
X94017322Y-75690000D01*
X94017333Y-75690000D01*
X94128986Y-75679003D01*
X94272247Y-75635546D01*
X94404276Y-75564974D01*
X94520001Y-75470001D01*
X94543804Y-75440997D01*
X95564802Y-74420000D01*
X100381957Y-74420000D01*
X100485363Y-74574759D01*
%TA.AperFunction,Conductor*%
D25*
G36*
X100485363Y-74574759D02*
G01*
X100685241Y-74774637D01*
X100917759Y-74930000D01*
X100685241Y-75085363D01*
X100485363Y-75285241D01*
X100381957Y-75440000D01*
X95287322Y-75440000D01*
X95249999Y-75436324D01*
X95212676Y-75440000D01*
X95212667Y-75440000D01*
X95101014Y-75450997D01*
X94957753Y-75494454D01*
X94825724Y-75565026D01*
X94709999Y-75659999D01*
X94686201Y-75688997D01*
X93665199Y-76710000D01*
X87701983Y-76710000D01*
X87739853Y-76618574D01*
X87795000Y-76341335D01*
X87795000Y-76058665D01*
X87739853Y-75781426D01*
X87701983Y-75690000D01*
X93942678Y-75690000D01*
X93980000Y-75693676D01*
X94017322Y-75690000D01*
X94017333Y-75690000D01*
X94128986Y-75679003D01*
X94272247Y-75635546D01*
X94404276Y-75564974D01*
X94520001Y-75470001D01*
X94543804Y-75440997D01*
X95564802Y-74420000D01*
X100381957Y-74420000D01*
X100485363Y-74574759D01*
G37*
%TD.AperFunction*%
D24*
X100485363Y-72034759D02*
X100685241Y-72234637D01*
X100917759Y-72390000D01*
X100685241Y-72545363D01*
X100485363Y-72745241D01*
X100381957Y-72900000D01*
X95287322Y-72900000D01*
X95249999Y-72896324D01*
X95212676Y-72900000D01*
X95212667Y-72900000D01*
X95101014Y-72910997D01*
X94957753Y-72954454D01*
X94825724Y-73025026D01*
X94709999Y-73119999D01*
X94686201Y-73148997D01*
X93665199Y-74170000D01*
X87701983Y-74170000D01*
X87739853Y-74078574D01*
X87795000Y-73801335D01*
X87795000Y-73518665D01*
X87739853Y-73241426D01*
X87701983Y-73150000D01*
X93942678Y-73150000D01*
X93980000Y-73153676D01*
X94017322Y-73150000D01*
X94017333Y-73150000D01*
X94128986Y-73139003D01*
X94272247Y-73095546D01*
X94404276Y-73024974D01*
X94520001Y-72930001D01*
X94543804Y-72900997D01*
X95564802Y-71880000D01*
X100381957Y-71880000D01*
X100485363Y-72034759D01*
%TA.AperFunction,Conductor*%
D25*
G36*
X100485363Y-72034759D02*
G01*
X100685241Y-72234637D01*
X100917759Y-72390000D01*
X100685241Y-72545363D01*
X100485363Y-72745241D01*
X100381957Y-72900000D01*
X95287322Y-72900000D01*
X95249999Y-72896324D01*
X95212676Y-72900000D01*
X95212667Y-72900000D01*
X95101014Y-72910997D01*
X94957753Y-72954454D01*
X94825724Y-73025026D01*
X94709999Y-73119999D01*
X94686201Y-73148997D01*
X93665199Y-74170000D01*
X87701983Y-74170000D01*
X87739853Y-74078574D01*
X87795000Y-73801335D01*
X87795000Y-73518665D01*
X87739853Y-73241426D01*
X87701983Y-73150000D01*
X93942678Y-73150000D01*
X93980000Y-73153676D01*
X94017322Y-73150000D01*
X94017333Y-73150000D01*
X94128986Y-73139003D01*
X94272247Y-73095546D01*
X94404276Y-73024974D01*
X94520001Y-72930001D01*
X94543804Y-72900997D01*
X95564802Y-71880000D01*
X100381957Y-71880000D01*
X100485363Y-72034759D01*
G37*
%TD.AperFunction*%
D24*
X99570000Y-58734802D02*
X99570001Y-64732668D01*
X99566324Y-64770000D01*
X99570001Y-64807333D01*
X99580998Y-64918986D01*
X99583712Y-64927932D01*
X99624454Y-65062246D01*
X99695026Y-65194276D01*
X99729042Y-65235724D01*
X99790000Y-65310001D01*
X99818998Y-65333799D01*
X100201312Y-65716114D01*
X100165000Y-65898665D01*
X100165000Y-66181335D01*
X100220147Y-66458574D01*
X100328320Y-66719727D01*
X100485363Y-66954759D01*
X100685241Y-67154637D01*
X100917759Y-67310000D01*
X100685241Y-67465363D01*
X100485363Y-67665241D01*
X100328320Y-67900273D01*
X100220147Y-68161426D01*
X100165000Y-68438665D01*
X100165000Y-68721335D01*
X100220147Y-68998574D01*
X100328320Y-69259727D01*
X100485363Y-69494759D01*
X100685241Y-69694637D01*
X100917759Y-69850000D01*
X100685241Y-70005363D01*
X100485363Y-70205241D01*
X100381957Y-70360000D01*
X95287322Y-70360000D01*
X95249999Y-70356324D01*
X95212676Y-70360000D01*
X95212667Y-70360000D01*
X95101014Y-70370997D01*
X94957753Y-70414454D01*
X94825724Y-70485026D01*
X94709999Y-70579999D01*
X94686201Y-70608997D01*
X93665199Y-71630000D01*
X87701983Y-71630000D01*
X87739853Y-71538574D01*
X87795000Y-71261335D01*
X87795000Y-70978665D01*
X87739853Y-70701426D01*
X87631680Y-70440273D01*
X87474637Y-70205241D01*
X87274759Y-70005363D01*
X87042241Y-69850000D01*
X87274759Y-69694637D01*
X87474637Y-69494759D01*
X87631680Y-69259727D01*
X87739853Y-68998574D01*
X87795000Y-68721335D01*
X87795000Y-68438665D01*
X87739853Y-68161426D01*
X87631680Y-67900273D01*
X87474637Y-67665241D01*
X87274759Y-67465363D01*
X87042241Y-67310000D01*
X87274759Y-67154637D01*
X87474637Y-66954759D01*
X87631680Y-66719727D01*
X87739853Y-66458574D01*
X87795000Y-66181335D01*
X87795000Y-65898665D01*
X87739853Y-65621426D01*
X87685322Y-65489774D01*
X92169831Y-65489774D01*
X92409977Y-65877017D01*
X92903877Y-66137640D01*
X93439132Y-66296899D01*
X93995173Y-66348676D01*
X94550630Y-66290979D01*
X95084159Y-66126027D01*
X95550023Y-65877017D01*
X95790169Y-65489774D01*
X93980000Y-63679605D01*
X92169831Y-65489774D01*
X87685322Y-65489774D01*
X87631680Y-65360273D01*
X87474637Y-65125241D01*
X87274759Y-64925363D01*
X87042241Y-64770000D01*
X87274759Y-64614637D01*
X87474637Y-64414759D01*
X87631680Y-64179727D01*
X87739853Y-63918574D01*
X87795000Y-63641335D01*
X87795000Y-63515173D01*
X91131324Y-63515173D01*
X91189021Y-64070630D01*
X91353973Y-64604159D01*
X91602983Y-65070023D01*
X91990226Y-65310169D01*
X93800395Y-63500000D01*
X94159605Y-63500000D01*
X95969774Y-65310169D01*
X96357017Y-65070023D01*
X96617640Y-64576123D01*
X96776899Y-64040868D01*
X96828676Y-63484827D01*
X96770979Y-62929370D01*
X96606027Y-62395841D01*
X96357017Y-61929977D01*
X95969774Y-61689831D01*
X94159605Y-63500000D01*
X93800395Y-63500000D01*
X91990226Y-61689831D01*
X91602983Y-61929977D01*
X91342360Y-62423877D01*
X91183101Y-62959132D01*
X91131324Y-63515173D01*
X87795000Y-63515173D01*
X87795000Y-63358665D01*
X87739853Y-63081426D01*
X87631680Y-62820273D01*
X87474637Y-62585241D01*
X87274759Y-62385363D01*
X87042241Y-62230000D01*
X87274759Y-62074637D01*
X87474637Y-61874759D01*
X87631680Y-61639727D01*
X87685321Y-61510226D01*
X92169831Y-61510226D01*
X93980000Y-63320395D01*
X95790169Y-61510226D01*
X95550023Y-61122983D01*
X95056123Y-60862360D01*
X94520868Y-60703101D01*
X93964827Y-60651324D01*
X93409370Y-60709021D01*
X92875841Y-60873973D01*
X92409977Y-61122983D01*
X92169831Y-61510226D01*
X87685321Y-61510226D01*
X87739853Y-61378574D01*
X87795000Y-61101335D01*
X87795000Y-60818665D01*
X87739853Y-60541426D01*
X87631680Y-60280273D01*
X87474637Y-60045241D01*
X87274759Y-59845363D01*
X87042241Y-59690000D01*
X87274759Y-59534637D01*
X87474637Y-59334759D01*
X87631680Y-59099727D01*
X87739853Y-58838574D01*
X87795000Y-58561335D01*
X87795000Y-58278665D01*
X87740564Y-58004999D01*
X98840198Y-58004999D01*
X99570000Y-58734802D01*
%TA.AperFunction,Conductor*%
D25*
G36*
X99570000Y-58734802D02*
G01*
X99570001Y-64732668D01*
X99566324Y-64770000D01*
X99570001Y-64807333D01*
X99580998Y-64918986D01*
X99583712Y-64927932D01*
X99624454Y-65062246D01*
X99695026Y-65194276D01*
X99729042Y-65235724D01*
X99790000Y-65310001D01*
X99818998Y-65333799D01*
X100201312Y-65716114D01*
X100165000Y-65898665D01*
X100165000Y-66181335D01*
X100220147Y-66458574D01*
X100328320Y-66719727D01*
X100485363Y-66954759D01*
X100685241Y-67154637D01*
X100917759Y-67310000D01*
X100685241Y-67465363D01*
X100485363Y-67665241D01*
X100328320Y-67900273D01*
X100220147Y-68161426D01*
X100165000Y-68438665D01*
X100165000Y-68721335D01*
X100220147Y-68998574D01*
X100328320Y-69259727D01*
X100485363Y-69494759D01*
X100685241Y-69694637D01*
X100917759Y-69850000D01*
X100685241Y-70005363D01*
X100485363Y-70205241D01*
X100381957Y-70360000D01*
X95287322Y-70360000D01*
X95249999Y-70356324D01*
X95212676Y-70360000D01*
X95212667Y-70360000D01*
X95101014Y-70370997D01*
X94957753Y-70414454D01*
X94825724Y-70485026D01*
X94709999Y-70579999D01*
X94686201Y-70608997D01*
X93665199Y-71630000D01*
X87701983Y-71630000D01*
X87739853Y-71538574D01*
X87795000Y-71261335D01*
X87795000Y-70978665D01*
X87739853Y-70701426D01*
X87631680Y-70440273D01*
X87474637Y-70205241D01*
X87274759Y-70005363D01*
X87042241Y-69850000D01*
X87274759Y-69694637D01*
X87474637Y-69494759D01*
X87631680Y-69259727D01*
X87739853Y-68998574D01*
X87795000Y-68721335D01*
X87795000Y-68438665D01*
X87739853Y-68161426D01*
X87631680Y-67900273D01*
X87474637Y-67665241D01*
X87274759Y-67465363D01*
X87042241Y-67310000D01*
X87274759Y-67154637D01*
X87474637Y-66954759D01*
X87631680Y-66719727D01*
X87739853Y-66458574D01*
X87795000Y-66181335D01*
X87795000Y-65898665D01*
X87739853Y-65621426D01*
X87685322Y-65489774D01*
X92169831Y-65489774D01*
X92409977Y-65877017D01*
X92903877Y-66137640D01*
X93439132Y-66296899D01*
X93995173Y-66348676D01*
X94550630Y-66290979D01*
X95084159Y-66126027D01*
X95550023Y-65877017D01*
X95790169Y-65489774D01*
X93980000Y-63679605D01*
X92169831Y-65489774D01*
X87685322Y-65489774D01*
X87631680Y-65360273D01*
X87474637Y-65125241D01*
X87274759Y-64925363D01*
X87042241Y-64770000D01*
X87274759Y-64614637D01*
X87474637Y-64414759D01*
X87631680Y-64179727D01*
X87739853Y-63918574D01*
X87795000Y-63641335D01*
X87795000Y-63515173D01*
X91131324Y-63515173D01*
X91189021Y-64070630D01*
X91353973Y-64604159D01*
X91602983Y-65070023D01*
X91990226Y-65310169D01*
X93800395Y-63500000D01*
X94159605Y-63500000D01*
X95969774Y-65310169D01*
X96357017Y-65070023D01*
X96617640Y-64576123D01*
X96776899Y-64040868D01*
X96828676Y-63484827D01*
X96770979Y-62929370D01*
X96606027Y-62395841D01*
X96357017Y-61929977D01*
X95969774Y-61689831D01*
X94159605Y-63500000D01*
X93800395Y-63500000D01*
X91990226Y-61689831D01*
X91602983Y-61929977D01*
X91342360Y-62423877D01*
X91183101Y-62959132D01*
X91131324Y-63515173D01*
X87795000Y-63515173D01*
X87795000Y-63358665D01*
X87739853Y-63081426D01*
X87631680Y-62820273D01*
X87474637Y-62585241D01*
X87274759Y-62385363D01*
X87042241Y-62230000D01*
X87274759Y-62074637D01*
X87474637Y-61874759D01*
X87631680Y-61639727D01*
X87685321Y-61510226D01*
X92169831Y-61510226D01*
X93980000Y-63320395D01*
X95790169Y-61510226D01*
X95550023Y-61122983D01*
X95056123Y-60862360D01*
X94520868Y-60703101D01*
X93964827Y-60651324D01*
X93409370Y-60709021D01*
X92875841Y-60873973D01*
X92409977Y-61122983D01*
X92169831Y-61510226D01*
X87685321Y-61510226D01*
X87739853Y-61378574D01*
X87795000Y-61101335D01*
X87795000Y-60818665D01*
X87739853Y-60541426D01*
X87631680Y-60280273D01*
X87474637Y-60045241D01*
X87274759Y-59845363D01*
X87042241Y-59690000D01*
X87274759Y-59534637D01*
X87474637Y-59334759D01*
X87631680Y-59099727D01*
X87739853Y-58838574D01*
X87795000Y-58561335D01*
X87795000Y-58278665D01*
X87740564Y-58004999D01*
X98840198Y-58004999D01*
X99570000Y-58734802D01*
G37*
%TD.AperFunction*%
D24*
X58266487Y-52898889D02*
X58245000Y-53117050D01*
X58245000Y-53562949D01*
X58266487Y-53781110D01*
X58351401Y-54061033D01*
X58489294Y-54319013D01*
X58674866Y-54545134D01*
X58900986Y-54730706D01*
X59158966Y-54868599D01*
X59438889Y-54953513D01*
X59730000Y-54982185D01*
X60021110Y-54953513D01*
X60180393Y-54905195D01*
X61666205Y-56391008D01*
X61689999Y-56420001D01*
X61718992Y-56443795D01*
X61718996Y-56443799D01*
X61764720Y-56481323D01*
X61805724Y-56514974D01*
X61937753Y-56585546D01*
X62081014Y-56629003D01*
X62192667Y-56640000D01*
X62192676Y-56640000D01*
X62229999Y-56643676D01*
X62267322Y-56640000D01*
X72755987Y-56640000D01*
X72742795Y-56659744D01*
X72664774Y-56848102D01*
X72625000Y-57048061D01*
X72625000Y-57251939D01*
X72664774Y-57451898D01*
X72742795Y-57640256D01*
X72755987Y-57660000D01*
X53656563Y-57660000D01*
X50927002Y-54908776D01*
X50927002Y-54816252D01*
X51085750Y-54975000D01*
X51650000Y-54978072D01*
X51774482Y-54965812D01*
X51894180Y-54929502D01*
X52004494Y-54870537D01*
X52101185Y-54791185D01*
X52180537Y-54694494D01*
X52239502Y-54584180D01*
X52275812Y-54464482D01*
X52288072Y-54340000D01*
X52285000Y-53625750D01*
X52126250Y-53467000D01*
X50927000Y-53467000D01*
X50927000Y-53487000D01*
X50673000Y-53487000D01*
X50673000Y-53467000D01*
X50653000Y-53467000D01*
X50653000Y-53213000D01*
X50673000Y-53213000D01*
X50673000Y-53193000D01*
X50927000Y-53193000D01*
X50927000Y-53213000D01*
X52126250Y-53213000D01*
X52285000Y-53054250D01*
X52286395Y-52730000D01*
X58317719Y-52730000D01*
X58266487Y-52898889D01*
%TA.AperFunction,Conductor*%
D25*
G36*
X58266487Y-52898889D02*
G01*
X58245000Y-53117050D01*
X58245000Y-53562949D01*
X58266487Y-53781110D01*
X58351401Y-54061033D01*
X58489294Y-54319013D01*
X58674866Y-54545134D01*
X58900986Y-54730706D01*
X59158966Y-54868599D01*
X59438889Y-54953513D01*
X59730000Y-54982185D01*
X60021110Y-54953513D01*
X60180393Y-54905195D01*
X61666205Y-56391008D01*
X61689999Y-56420001D01*
X61718992Y-56443795D01*
X61718996Y-56443799D01*
X61764720Y-56481323D01*
X61805724Y-56514974D01*
X61937753Y-56585546D01*
X62081014Y-56629003D01*
X62192667Y-56640000D01*
X62192676Y-56640000D01*
X62229999Y-56643676D01*
X62267322Y-56640000D01*
X72755987Y-56640000D01*
X72742795Y-56659744D01*
X72664774Y-56848102D01*
X72625000Y-57048061D01*
X72625000Y-57251939D01*
X72664774Y-57451898D01*
X72742795Y-57640256D01*
X72755987Y-57660000D01*
X53656563Y-57660000D01*
X50927002Y-54908776D01*
X50927002Y-54816252D01*
X51085750Y-54975000D01*
X51650000Y-54978072D01*
X51774482Y-54965812D01*
X51894180Y-54929502D01*
X52004494Y-54870537D01*
X52101185Y-54791185D01*
X52180537Y-54694494D01*
X52239502Y-54584180D01*
X52275812Y-54464482D01*
X52288072Y-54340000D01*
X52285000Y-53625750D01*
X52126250Y-53467000D01*
X50927000Y-53467000D01*
X50927000Y-53487000D01*
X50673000Y-53487000D01*
X50673000Y-53467000D01*
X50653000Y-53467000D01*
X50653000Y-53213000D01*
X50673000Y-53213000D01*
X50673000Y-53193000D01*
X50927000Y-53193000D01*
X50927000Y-53213000D01*
X52126250Y-53213000D01*
X52285000Y-53054250D01*
X52286395Y-52730000D01*
X58317719Y-52730000D01*
X58266487Y-52898889D01*
G37*
%TD.AperFunction*%
D24*
X100485363Y-54254759D02*
X100685241Y-54454637D01*
X100917759Y-54610000D01*
X100685241Y-54765363D01*
X100485363Y-54965241D01*
X100328320Y-55200273D01*
X100220147Y-55461426D01*
X100165000Y-55738665D01*
X100165000Y-56021335D01*
X100220147Y-56298574D01*
X100328320Y-56559727D01*
X100485363Y-56794759D01*
X100685241Y-56994637D01*
X100917759Y-57150000D01*
X100685241Y-57305363D01*
X100487703Y-57502901D01*
X99666001Y-56681200D01*
X99579275Y-56610025D01*
X99447245Y-56539453D01*
X99303984Y-56495997D01*
X99154999Y-56481323D01*
X99107505Y-56486001D01*
X99097333Y-56484999D01*
X87662633Y-56484999D01*
X87739853Y-56298574D01*
X87795000Y-56021335D01*
X87795000Y-55738665D01*
X87739853Y-55461426D01*
X87733049Y-55445000D01*
X93938982Y-55445000D01*
X93980000Y-55449040D01*
X94021018Y-55445000D01*
X94021019Y-55445000D01*
X94143689Y-55432918D01*
X94301087Y-55385172D01*
X94446146Y-55307636D01*
X94573291Y-55203291D01*
X94599446Y-55171421D01*
X95595868Y-54175000D01*
X100432070Y-54175000D01*
X100485363Y-54254759D01*
%TA.AperFunction,Conductor*%
D25*
G36*
X100485363Y-54254759D02*
G01*
X100685241Y-54454637D01*
X100917759Y-54610000D01*
X100685241Y-54765363D01*
X100485363Y-54965241D01*
X100328320Y-55200273D01*
X100220147Y-55461426D01*
X100165000Y-55738665D01*
X100165000Y-56021335D01*
X100220147Y-56298574D01*
X100328320Y-56559727D01*
X100485363Y-56794759D01*
X100685241Y-56994637D01*
X100917759Y-57150000D01*
X100685241Y-57305363D01*
X100487703Y-57502901D01*
X99666001Y-56681200D01*
X99579275Y-56610025D01*
X99447245Y-56539453D01*
X99303984Y-56495997D01*
X99154999Y-56481323D01*
X99107505Y-56486001D01*
X99097333Y-56484999D01*
X87662633Y-56484999D01*
X87739853Y-56298574D01*
X87795000Y-56021335D01*
X87795000Y-55738665D01*
X87739853Y-55461426D01*
X87733049Y-55445000D01*
X93938982Y-55445000D01*
X93980000Y-55449040D01*
X94021018Y-55445000D01*
X94021019Y-55445000D01*
X94143689Y-55432918D01*
X94301087Y-55385172D01*
X94446146Y-55307636D01*
X94573291Y-55203291D01*
X94599446Y-55171421D01*
X95595868Y-54175000D01*
X100432070Y-54175000D01*
X100485363Y-54254759D01*
G37*
%TD.AperFunction*%
D24*
X69736487Y-52923889D02*
X69715000Y-53142050D01*
X69715000Y-53537949D01*
X69736487Y-53756110D01*
X69821401Y-54036033D01*
X69959294Y-54294013D01*
X70144866Y-54520134D01*
X70370986Y-54705706D01*
X70628966Y-54843599D01*
X70908889Y-54928513D01*
X71200000Y-54957185D01*
X71491110Y-54928513D01*
X71519141Y-54920010D01*
X71719131Y-55120000D01*
X62544803Y-55120000D01*
X62357002Y-54932199D01*
X62357002Y-54816252D01*
X62515750Y-54975000D01*
X63080000Y-54978072D01*
X63204482Y-54965812D01*
X63324180Y-54929502D01*
X63434494Y-54870537D01*
X63531185Y-54791185D01*
X63610537Y-54694494D01*
X63669502Y-54584180D01*
X63705812Y-54464482D01*
X63718072Y-54340000D01*
X63715000Y-53625750D01*
X63556250Y-53467000D01*
X62357000Y-53467000D01*
X62357000Y-53487000D01*
X62103000Y-53487000D01*
X62103000Y-53467000D01*
X62083000Y-53467000D01*
X62083000Y-53213000D01*
X62103000Y-53213000D01*
X62103000Y-53193000D01*
X62357000Y-53193000D01*
X62357000Y-53213000D01*
X63556250Y-53213000D01*
X63715000Y-53054250D01*
X63716395Y-52730000D01*
X69795303Y-52730000D01*
X69736487Y-52923889D01*
%TA.AperFunction,Conductor*%
D25*
G36*
X69736487Y-52923889D02*
G01*
X69715000Y-53142050D01*
X69715000Y-53537949D01*
X69736487Y-53756110D01*
X69821401Y-54036033D01*
X69959294Y-54294013D01*
X70144866Y-54520134D01*
X70370986Y-54705706D01*
X70628966Y-54843599D01*
X70908889Y-54928513D01*
X71200000Y-54957185D01*
X71491110Y-54928513D01*
X71519141Y-54920010D01*
X71719131Y-55120000D01*
X62544803Y-55120000D01*
X62357002Y-54932199D01*
X62357002Y-54816252D01*
X62515750Y-54975000D01*
X63080000Y-54978072D01*
X63204482Y-54965812D01*
X63324180Y-54929502D01*
X63434494Y-54870537D01*
X63531185Y-54791185D01*
X63610537Y-54694494D01*
X63669502Y-54584180D01*
X63705812Y-54464482D01*
X63718072Y-54340000D01*
X63715000Y-53625750D01*
X63556250Y-53467000D01*
X62357000Y-53467000D01*
X62357000Y-53487000D01*
X62103000Y-53487000D01*
X62103000Y-53467000D01*
X62083000Y-53467000D01*
X62083000Y-53213000D01*
X62103000Y-53213000D01*
X62103000Y-53193000D01*
X62357000Y-53193000D01*
X62357000Y-53213000D01*
X63556250Y-53213000D01*
X63715000Y-53054250D01*
X63716395Y-52730000D01*
X69795303Y-52730000D01*
X69736487Y-52923889D01*
G37*
%TD.AperFunction*%
D24*
X82335000Y-53054250D02*
X82493750Y-53213000D01*
X83693000Y-53213000D01*
X83693000Y-53193000D01*
X83947000Y-53193000D01*
X83947000Y-53213000D01*
X86233000Y-53213000D01*
X86233000Y-53193000D01*
X86487000Y-53193000D01*
X86487000Y-53213000D01*
X87636250Y-53213000D01*
X87795000Y-53054250D01*
X87796937Y-52730000D01*
X94677069Y-52730000D01*
X94656709Y-52746709D01*
X94630558Y-52778574D01*
X93634133Y-53775000D01*
X87795892Y-53775000D01*
X87795000Y-53625750D01*
X87636250Y-53467000D01*
X86487000Y-53467000D01*
X86487000Y-53487000D01*
X86233000Y-53487000D01*
X86233000Y-53467000D01*
X83947000Y-53467000D01*
X83947000Y-53487000D01*
X83693000Y-53487000D01*
X83693000Y-53467000D01*
X82493750Y-53467000D01*
X82335000Y-53625750D01*
X82333616Y-53880010D01*
X77688072Y-53880010D01*
X77688072Y-52730000D01*
X82333235Y-52730000D01*
X82335000Y-53054250D01*
%TA.AperFunction,Conductor*%
D25*
G36*
X82335000Y-53054250D02*
G01*
X82493750Y-53213000D01*
X83693000Y-53213000D01*
X83693000Y-53193000D01*
X83947000Y-53193000D01*
X83947000Y-53213000D01*
X86233000Y-53213000D01*
X86233000Y-53193000D01*
X86487000Y-53193000D01*
X86487000Y-53213000D01*
X87636250Y-53213000D01*
X87795000Y-53054250D01*
X87796937Y-52730000D01*
X94677069Y-52730000D01*
X94656709Y-52746709D01*
X94630558Y-52778574D01*
X93634133Y-53775000D01*
X87795892Y-53775000D01*
X87795000Y-53625750D01*
X87636250Y-53467000D01*
X86487000Y-53467000D01*
X86487000Y-53487000D01*
X86233000Y-53487000D01*
X86233000Y-53467000D01*
X83947000Y-53467000D01*
X83947000Y-53487000D01*
X83693000Y-53487000D01*
X83693000Y-53467000D01*
X82493750Y-53467000D01*
X82335000Y-53625750D01*
X82333616Y-53880010D01*
X77688072Y-53880010D01*
X77688072Y-52730000D01*
X82333235Y-52730000D01*
X82335000Y-53054250D01*
G37*
%TD.AperFunction*%
%TD*%
M02*
