%TF.GenerationSoftware,KiCad,Pcbnew,(5.1.10-1-10_14)*%
%TF.CreationDate,2021-08-23T22:51:27-07:00*%
%TF.ProjectId,town,746f776e-2e6b-4696-9361-645f70636258,rev?*%
%TF.SameCoordinates,Original*%
%TF.FileFunction,Legend,Top*%
%TF.FilePolarity,Positive*%
%FSLAX46Y46*%
G04 Gerber Fmt 4.6, Leading zero omitted, Abs format (unit mm)*
G04 Created by KiCad (PCBNEW (5.1.10-1-10_14)) date 2021-08-23 22:51:27*
%MOMM*%
%LPD*%
G01*
G04 APERTURE LIST*
%ADD10C,0.150000*%
%ADD11C,0.120000*%
G04 APERTURE END LIST*
D10*
X59231785Y-74767761D02*
X58755595Y-74767761D01*
X58755595Y-72767761D01*
X59565119Y-74767761D02*
X59565119Y-73434428D01*
X59565119Y-72767761D02*
X59517500Y-72863000D01*
X59565119Y-72958238D01*
X59612738Y-72863000D01*
X59565119Y-72767761D01*
X59565119Y-72958238D01*
X59898452Y-73434428D02*
X60279404Y-73434428D01*
X60041309Y-72767761D02*
X60041309Y-74482047D01*
X60088928Y-74672523D01*
X60184166Y-74767761D01*
X60279404Y-74767761D01*
X60469880Y-73434428D02*
X60850833Y-73434428D01*
X60612738Y-72767761D02*
X60612738Y-74482047D01*
X60660357Y-74672523D01*
X60755595Y-74767761D01*
X60850833Y-74767761D01*
X61327023Y-74767761D02*
X61231785Y-74672523D01*
X61184166Y-74482047D01*
X61184166Y-72767761D01*
X62088928Y-74672523D02*
X61993690Y-74767761D01*
X61803214Y-74767761D01*
X61707976Y-74672523D01*
X61660357Y-74482047D01*
X61660357Y-73720142D01*
X61707976Y-73529666D01*
X61803214Y-73434428D01*
X61993690Y-73434428D01*
X62088928Y-73529666D01*
X62136547Y-73720142D01*
X62136547Y-73910619D01*
X61660357Y-74101095D01*
X63660357Y-73720142D02*
X63327023Y-73720142D01*
X63327023Y-74767761D02*
X63327023Y-72767761D01*
X63803214Y-72767761D01*
X64184166Y-74767761D02*
X64184166Y-73434428D01*
X64184166Y-73815380D02*
X64231785Y-73624904D01*
X64279404Y-73529666D01*
X64374642Y-73434428D01*
X64469880Y-73434428D01*
X65184166Y-74672523D02*
X65088928Y-74767761D01*
X64898452Y-74767761D01*
X64803214Y-74672523D01*
X64755595Y-74482047D01*
X64755595Y-73720142D01*
X64803214Y-73529666D01*
X64898452Y-73434428D01*
X65088928Y-73434428D01*
X65184166Y-73529666D01*
X65231785Y-73720142D01*
X65231785Y-73910619D01*
X64755595Y-74101095D01*
X66041309Y-74672523D02*
X65946071Y-74767761D01*
X65755595Y-74767761D01*
X65660357Y-74672523D01*
X65612738Y-74482047D01*
X65612738Y-73720142D01*
X65660357Y-73529666D01*
X65755595Y-73434428D01*
X65946071Y-73434428D01*
X66041309Y-73529666D01*
X66088928Y-73720142D01*
X66088928Y-73910619D01*
X65612738Y-74101095D01*
X67136547Y-72767761D02*
X67707976Y-72767761D01*
X67422261Y-74767761D02*
X67422261Y-72767761D01*
X68184166Y-74767761D02*
X68088928Y-74672523D01*
X68041309Y-74577285D01*
X67993690Y-74386809D01*
X67993690Y-73815380D01*
X68041309Y-73624904D01*
X68088928Y-73529666D01*
X68184166Y-73434428D01*
X68327023Y-73434428D01*
X68422261Y-73529666D01*
X68469880Y-73624904D01*
X68517500Y-73815380D01*
X68517500Y-74386809D01*
X68469880Y-74577285D01*
X68422261Y-74672523D01*
X68327023Y-74767761D01*
X68184166Y-74767761D01*
X68850833Y-73434428D02*
X69041309Y-74767761D01*
X69231785Y-73815380D01*
X69422261Y-74767761D01*
X69612738Y-73434428D01*
X69993690Y-73434428D02*
X69993690Y-74767761D01*
X69993690Y-73624904D02*
X70041309Y-73529666D01*
X70136547Y-73434428D01*
X70279404Y-73434428D01*
X70374642Y-73529666D01*
X70422261Y-73720142D01*
X70422261Y-74767761D01*
X70946071Y-74672523D02*
X70946071Y-74767761D01*
X70898452Y-74958238D01*
X70850833Y-75053476D01*
X72041309Y-73434428D02*
X72279404Y-74767761D01*
X72517500Y-73434428D01*
X73422261Y-74767761D02*
X72850833Y-74767761D01*
X73136547Y-74767761D02*
X73136547Y-72767761D01*
X73041309Y-73053476D01*
X72946071Y-73243952D01*
X72850833Y-73339190D01*
X59088928Y-76870142D02*
X59231785Y-76965380D01*
X59279404Y-77060619D01*
X59327023Y-77251095D01*
X59327023Y-77536809D01*
X59279404Y-77727285D01*
X59231785Y-77822523D01*
X59136547Y-77917761D01*
X58755595Y-77917761D01*
X58755595Y-75917761D01*
X59088928Y-75917761D01*
X59184166Y-76013000D01*
X59231785Y-76108238D01*
X59279404Y-76298714D01*
X59279404Y-76489190D01*
X59231785Y-76679666D01*
X59184166Y-76774904D01*
X59088928Y-76870142D01*
X58755595Y-76870142D01*
X59755595Y-77917761D02*
X59755595Y-76584428D01*
X59755595Y-76965380D02*
X59803214Y-76774904D01*
X59850833Y-76679666D01*
X59946071Y-76584428D01*
X60041309Y-76584428D01*
X60517500Y-77917761D02*
X60422261Y-77822523D01*
X60374642Y-77727285D01*
X60327023Y-77536809D01*
X60327023Y-76965380D01*
X60374642Y-76774904D01*
X60422261Y-76679666D01*
X60517500Y-76584428D01*
X60660357Y-76584428D01*
X60755595Y-76679666D01*
X60803214Y-76774904D01*
X60850833Y-76965380D01*
X60850833Y-77536809D01*
X60803214Y-77727285D01*
X60755595Y-77822523D01*
X60660357Y-77917761D01*
X60517500Y-77917761D01*
X61184166Y-76584428D02*
X61374642Y-77917761D01*
X61565119Y-76965380D01*
X61755595Y-77917761D01*
X61946071Y-76584428D01*
X62327023Y-76584428D02*
X62327023Y-77917761D01*
X62327023Y-76774904D02*
X62374642Y-76679666D01*
X62469880Y-76584428D01*
X62612738Y-76584428D01*
X62707976Y-76679666D01*
X62755595Y-76870142D01*
X62755595Y-77917761D01*
X63946071Y-77822523D02*
X64088928Y-77917761D01*
X64327023Y-77917761D01*
X64422261Y-77822523D01*
X64469880Y-77727285D01*
X64517500Y-77536809D01*
X64517500Y-77346333D01*
X64469880Y-77155857D01*
X64422261Y-77060619D01*
X64327023Y-76965380D01*
X64136547Y-76870142D01*
X64041309Y-76774904D01*
X63993690Y-76679666D01*
X63946071Y-76489190D01*
X63946071Y-76298714D01*
X63993690Y-76108238D01*
X64041309Y-76013000D01*
X64136547Y-75917761D01*
X64374642Y-75917761D01*
X64517500Y-76013000D01*
X64803214Y-76584428D02*
X65184166Y-76584428D01*
X64946071Y-75917761D02*
X64946071Y-77632047D01*
X64993690Y-77822523D01*
X65088928Y-77917761D01*
X65184166Y-77917761D01*
X65946071Y-76584428D02*
X65946071Y-77917761D01*
X65517500Y-76584428D02*
X65517500Y-77632047D01*
X65565119Y-77822523D01*
X65660357Y-77917761D01*
X65803214Y-77917761D01*
X65898452Y-77822523D01*
X65946071Y-77727285D01*
X66850833Y-77917761D02*
X66850833Y-75917761D01*
X66850833Y-77822523D02*
X66755595Y-77917761D01*
X66565119Y-77917761D01*
X66469880Y-77822523D01*
X66422261Y-77727285D01*
X66374642Y-77536809D01*
X66374642Y-76965380D01*
X66422261Y-76774904D01*
X66469880Y-76679666D01*
X66565119Y-76584428D01*
X66755595Y-76584428D01*
X66850833Y-76679666D01*
X67327023Y-77917761D02*
X67327023Y-76584428D01*
X67327023Y-75917761D02*
X67279404Y-76013000D01*
X67327023Y-76108238D01*
X67374642Y-76013000D01*
X67327023Y-75917761D01*
X67327023Y-76108238D01*
X67946071Y-77917761D02*
X67850833Y-77822523D01*
X67803214Y-77727285D01*
X67755595Y-77536809D01*
X67755595Y-76965380D01*
X67803214Y-76774904D01*
X67850833Y-76679666D01*
X67946071Y-76584428D01*
X68088928Y-76584428D01*
X68184166Y-76679666D01*
X68231785Y-76774904D01*
X68279404Y-76965380D01*
X68279404Y-77536809D01*
X68231785Y-77727285D01*
X68184166Y-77822523D01*
X68088928Y-77917761D01*
X67946071Y-77917761D01*
X68660357Y-77822523D02*
X68755595Y-77917761D01*
X68946071Y-77917761D01*
X69041309Y-77822523D01*
X69088928Y-77632047D01*
X69088928Y-77536809D01*
X69041309Y-77346333D01*
X68946071Y-77251095D01*
X68803214Y-77251095D01*
X68707976Y-77155857D01*
X68660357Y-76965380D01*
X68660357Y-76870142D01*
X68707976Y-76679666D01*
X68803214Y-76584428D01*
X68946071Y-76584428D01*
X69041309Y-76679666D01*
X69565119Y-77822523D02*
X69565119Y-77917761D01*
X69517500Y-78108238D01*
X69469880Y-78203476D01*
X71231785Y-77917761D02*
X70755595Y-77917761D01*
X70755595Y-75917761D01*
X72041309Y-77917761D02*
X71565119Y-77917761D01*
X71565119Y-75917761D01*
X72946071Y-77727285D02*
X72898452Y-77822523D01*
X72755595Y-77917761D01*
X72660357Y-77917761D01*
X72517500Y-77822523D01*
X72422261Y-77632047D01*
X72374642Y-77441571D01*
X72327023Y-77060619D01*
X72327023Y-76774904D01*
X72374642Y-76393952D01*
X72422261Y-76203476D01*
X72517500Y-76013000D01*
X72660357Y-75917761D01*
X72755595Y-75917761D01*
X72898452Y-76013000D01*
X72946071Y-76108238D01*
%TO.C,U1*%
X85090000Y-52070000D02*
X102870000Y-52070000D01*
X85090000Y-87630000D02*
X85090000Y-52070000D01*
X102870000Y-87630000D02*
X85090000Y-87630000D01*
X102870000Y-52070000D02*
X102870000Y-87630000D01*
X90170000Y-57150000D02*
X90170000Y-52070000D01*
X97790000Y-57150000D02*
X97790000Y-52070000D01*
X90170000Y-57150000D02*
X97790000Y-57150000D01*
X97790000Y-50800000D02*
X97790000Y-52070000D01*
X90170000Y-50800000D02*
X97790000Y-50800000D01*
X90170000Y-52070000D02*
X90170000Y-50800000D01*
D11*
%TO.C,EXP2*%
X64710000Y-87690000D02*
X64710000Y-86360000D01*
X66040000Y-87690000D02*
X64710000Y-87690000D01*
X64710000Y-85090000D02*
X64710000Y-82490000D01*
X67310000Y-85090000D02*
X64710000Y-85090000D01*
X67310000Y-87690000D02*
X67310000Y-85090000D01*
X64710000Y-82490000D02*
X77530000Y-82490000D01*
X67310000Y-87690000D02*
X77530000Y-87690000D01*
X77530000Y-87690000D02*
X77530000Y-82490000D01*
%TO.C,EXP1*%
X46930000Y-87690000D02*
X46930000Y-86360000D01*
X48260000Y-87690000D02*
X46930000Y-87690000D01*
X46930000Y-85090000D02*
X46930000Y-82490000D01*
X49530000Y-85090000D02*
X46930000Y-85090000D01*
X49530000Y-87690000D02*
X49530000Y-85090000D01*
X46930000Y-82490000D02*
X59750000Y-82490000D01*
X49530000Y-87690000D02*
X59750000Y-87690000D01*
X59750000Y-87690000D02*
X59750000Y-82490000D01*
%TO.C,Q1*%
X65280000Y-61920000D02*
X66740000Y-61920000D01*
X65280000Y-65080000D02*
X68440000Y-65080000D01*
X65280000Y-65080000D02*
X65280000Y-64150000D01*
X65280000Y-61920000D02*
X65280000Y-62850000D01*
%TO.C,R4*%
X76947500Y-63245276D02*
X76947500Y-63754724D01*
X77992500Y-63245276D02*
X77992500Y-63754724D01*
%TO.C,R3*%
X72912500Y-63754724D02*
X72912500Y-63245276D01*
X71867500Y-63754724D02*
X71867500Y-63245276D01*
%TO.C,R2*%
X72912500Y-69192224D02*
X72912500Y-68682776D01*
X71867500Y-69192224D02*
X71867500Y-68682776D01*
%TO.C,R1*%
X66787500Y-68682776D02*
X66787500Y-69192224D01*
X67832500Y-68682776D02*
X67832500Y-69192224D01*
%TO.C,J4*%
X50500000Y-55440000D02*
X50800000Y-54840000D01*
X51100000Y-55440000D02*
X50500000Y-55440000D01*
X50800000Y-54840000D02*
X51100000Y-55440000D01*
X48050000Y-51740000D02*
X48550000Y-51740000D01*
X48050000Y-46240000D02*
X48050000Y-51740000D01*
X48550000Y-46240000D02*
X48050000Y-46240000D01*
X48550000Y-51740000D02*
X48550000Y-46240000D01*
X50550000Y-51740000D02*
X51050000Y-51740000D01*
X50550000Y-46240000D02*
X50550000Y-51740000D01*
X51050000Y-46240000D02*
X50550000Y-46240000D01*
X51050000Y-51740000D02*
X51050000Y-46240000D01*
X47160000Y-57350000D02*
X47160000Y-52850000D01*
X45740000Y-57350000D02*
X47160000Y-57350000D01*
X45740000Y-45630000D02*
X45740000Y-57350000D01*
X49550000Y-45630000D02*
X45740000Y-45630000D01*
X51940000Y-57350000D02*
X51940000Y-52850000D01*
X53360000Y-57350000D02*
X51940000Y-57350000D01*
X53360000Y-45630000D02*
X53360000Y-57350000D01*
X49550000Y-45630000D02*
X53360000Y-45630000D01*
%TO.C,J3*%
X61930000Y-55440000D02*
X62230000Y-54840000D01*
X62530000Y-55440000D02*
X61930000Y-55440000D01*
X62230000Y-54840000D02*
X62530000Y-55440000D01*
X59480000Y-51740000D02*
X59980000Y-51740000D01*
X59480000Y-46240000D02*
X59480000Y-51740000D01*
X59980000Y-46240000D02*
X59480000Y-46240000D01*
X59980000Y-51740000D02*
X59980000Y-46240000D01*
X61980000Y-51740000D02*
X62480000Y-51740000D01*
X61980000Y-46240000D02*
X61980000Y-51740000D01*
X62480000Y-46240000D02*
X61980000Y-46240000D01*
X62480000Y-51740000D02*
X62480000Y-46240000D01*
X58590000Y-57350000D02*
X58590000Y-52850000D01*
X57170000Y-57350000D02*
X58590000Y-57350000D01*
X57170000Y-45630000D02*
X57170000Y-57350000D01*
X60980000Y-45630000D02*
X57170000Y-45630000D01*
X63370000Y-57350000D02*
X63370000Y-52850000D01*
X64790000Y-57350000D02*
X63370000Y-57350000D01*
X64790000Y-45630000D02*
X64790000Y-57350000D01*
X60980000Y-45630000D02*
X64790000Y-45630000D01*
%TO.C,J2*%
X75900000Y-55440000D02*
X76200000Y-54840000D01*
X76500000Y-55440000D02*
X75900000Y-55440000D01*
X76200000Y-54840000D02*
X76500000Y-55440000D01*
X70950000Y-51740000D02*
X71450000Y-51740000D01*
X70950000Y-46240000D02*
X70950000Y-51740000D01*
X71450000Y-46240000D02*
X70950000Y-46240000D01*
X71450000Y-51740000D02*
X71450000Y-46240000D01*
X73450000Y-51740000D02*
X73950000Y-51740000D01*
X73450000Y-46240000D02*
X73450000Y-51740000D01*
X73950000Y-46240000D02*
X73450000Y-46240000D01*
X73950000Y-51740000D02*
X73950000Y-46240000D01*
X75950000Y-51740000D02*
X76450000Y-51740000D01*
X75950000Y-46240000D02*
X75950000Y-51740000D01*
X76450000Y-46240000D02*
X75950000Y-46240000D01*
X76450000Y-51740000D02*
X76450000Y-46240000D01*
X70060000Y-57350000D02*
X70060000Y-52850000D01*
X68640000Y-57350000D02*
X70060000Y-57350000D01*
X68640000Y-45630000D02*
X68640000Y-57350000D01*
X73700000Y-45630000D02*
X68640000Y-45630000D01*
X77340000Y-57350000D02*
X77340000Y-52850000D01*
X78760000Y-57350000D02*
X77340000Y-57350000D01*
X78760000Y-45630000D02*
X78760000Y-57350000D01*
X73700000Y-45630000D02*
X78760000Y-45630000D01*
%TO.C,J1*%
X46150000Y-76020000D02*
X47400000Y-76020000D01*
X46150000Y-74770000D02*
X46150000Y-76020000D01*
X50560000Y-66660000D02*
X50060000Y-66660000D01*
X50060000Y-66560000D02*
X50560000Y-66560000D01*
X50060000Y-66760000D02*
X50060000Y-66560000D01*
X50560000Y-66760000D02*
X50060000Y-66760000D01*
X50560000Y-68660000D02*
X50060000Y-68660000D01*
X50060000Y-68560000D02*
X50560000Y-68560000D01*
X50060000Y-68760000D02*
X50060000Y-68560000D01*
X50560000Y-68760000D02*
X50060000Y-68760000D01*
X50560000Y-70660000D02*
X50060000Y-70660000D01*
X50060000Y-70560000D02*
X50560000Y-70560000D01*
X50060000Y-70760000D02*
X50060000Y-70560000D01*
X50560000Y-70760000D02*
X50060000Y-70760000D01*
X50560000Y-72660000D02*
X50060000Y-72660000D01*
X50060000Y-72560000D02*
X50560000Y-72560000D01*
X50060000Y-72760000D02*
X50060000Y-72560000D01*
X50560000Y-72760000D02*
X50060000Y-72760000D01*
X49060000Y-63600000D02*
X49060000Y-64210000D01*
X47760000Y-63600000D02*
X47760000Y-64210000D01*
X49060000Y-75720000D02*
X49060000Y-75110000D01*
X47760000Y-75720000D02*
X47760000Y-75110000D01*
X47060000Y-66160000D02*
X46450000Y-66160000D01*
X47060000Y-64210000D02*
X47060000Y-66160000D01*
X50560000Y-64210000D02*
X47060000Y-64210000D01*
X50560000Y-75110000D02*
X50560000Y-64210000D01*
X47060000Y-75110000D02*
X50560000Y-75110000D01*
X47060000Y-73160000D02*
X47060000Y-75110000D01*
X46450000Y-73160000D02*
X47060000Y-73160000D01*
X46350000Y-73960000D02*
X46350000Y-74260000D01*
X46250000Y-74260000D02*
X46450000Y-74260000D01*
X46250000Y-73960000D02*
X46250000Y-74260000D01*
X46450000Y-73960000D02*
X46250000Y-73960000D01*
X46450000Y-63600000D02*
X46450000Y-75720000D01*
X51170000Y-63600000D02*
X46450000Y-63600000D01*
X51170000Y-75720000D02*
X51170000Y-63600000D01*
X46450000Y-75720000D02*
X51170000Y-75720000D01*
%TO.C,H2*%
X105470000Y-87690000D02*
X104140000Y-87690000D01*
X105470000Y-86360000D02*
X105470000Y-87690000D01*
X105470000Y-85090000D02*
X102810000Y-85090000D01*
X102810000Y-85090000D02*
X102810000Y-52010000D01*
X105470000Y-85090000D02*
X105470000Y-52010000D01*
X105470000Y-52010000D02*
X102810000Y-52010000D01*
%TO.C,H1*%
X82490000Y-52010000D02*
X83820000Y-52010000D01*
X82490000Y-53340000D02*
X82490000Y-52010000D01*
X82490000Y-54610000D02*
X85150000Y-54610000D01*
X85150000Y-54610000D02*
X85150000Y-87690000D01*
X82490000Y-54610000D02*
X82490000Y-87690000D01*
X82490000Y-87690000D02*
X85150000Y-87690000D01*
%TO.C,C1*%
X77980000Y-69133767D02*
X77980000Y-68841233D01*
X76960000Y-69133767D02*
X76960000Y-68841233D01*
%TO.C,EXP2*%
D10*
X69453333Y-80954571D02*
X69786666Y-80954571D01*
X69929523Y-81478380D02*
X69453333Y-81478380D01*
X69453333Y-80478380D01*
X69929523Y-80478380D01*
X70262857Y-80478380D02*
X70929523Y-81478380D01*
X70929523Y-80478380D02*
X70262857Y-81478380D01*
X71310476Y-81478380D02*
X71310476Y-80478380D01*
X71691428Y-80478380D01*
X71786666Y-80526000D01*
X71834285Y-80573619D01*
X71881904Y-80668857D01*
X71881904Y-80811714D01*
X71834285Y-80906952D01*
X71786666Y-80954571D01*
X71691428Y-81002190D01*
X71310476Y-81002190D01*
X72262857Y-80573619D02*
X72310476Y-80526000D01*
X72405714Y-80478380D01*
X72643809Y-80478380D01*
X72739047Y-80526000D01*
X72786666Y-80573619D01*
X72834285Y-80668857D01*
X72834285Y-80764095D01*
X72786666Y-80906952D01*
X72215238Y-81478380D01*
X72834285Y-81478380D01*
%TO.C,EXP1*%
X51673333Y-80954571D02*
X52006666Y-80954571D01*
X52149523Y-81478380D02*
X51673333Y-81478380D01*
X51673333Y-80478380D01*
X52149523Y-80478380D01*
X52482857Y-80478380D02*
X53149523Y-81478380D01*
X53149523Y-80478380D02*
X52482857Y-81478380D01*
X53530476Y-81478380D02*
X53530476Y-80478380D01*
X53911428Y-80478380D01*
X54006666Y-80526000D01*
X54054285Y-80573619D01*
X54101904Y-80668857D01*
X54101904Y-80811714D01*
X54054285Y-80906952D01*
X54006666Y-80954571D01*
X53911428Y-81002190D01*
X53530476Y-81002190D01*
X55054285Y-81478380D02*
X54482857Y-81478380D01*
X54768571Y-81478380D02*
X54768571Y-80478380D01*
X54673333Y-80621238D01*
X54578095Y-80716476D01*
X54482857Y-80764095D01*
%TO.C,Q1*%
X65944761Y-66547619D02*
X65849523Y-66500000D01*
X65754285Y-66404761D01*
X65611428Y-66261904D01*
X65516190Y-66214285D01*
X65420952Y-66214285D01*
X65468571Y-66452380D02*
X65373333Y-66404761D01*
X65278095Y-66309523D01*
X65230476Y-66119047D01*
X65230476Y-65785714D01*
X65278095Y-65595238D01*
X65373333Y-65500000D01*
X65468571Y-65452380D01*
X65659047Y-65452380D01*
X65754285Y-65500000D01*
X65849523Y-65595238D01*
X65897142Y-65785714D01*
X65897142Y-66119047D01*
X65849523Y-66309523D01*
X65754285Y-66404761D01*
X65659047Y-66452380D01*
X65468571Y-66452380D01*
X66849523Y-66452380D02*
X66278095Y-66452380D01*
X66563809Y-66452380D02*
X66563809Y-65452380D01*
X66468571Y-65595238D01*
X66373333Y-65690476D01*
X66278095Y-65738095D01*
X63944761Y-60500000D02*
X63849523Y-60452380D01*
X63706666Y-60452380D01*
X63563809Y-60500000D01*
X63468571Y-60595238D01*
X63420952Y-60690476D01*
X63373333Y-60880952D01*
X63373333Y-61023809D01*
X63420952Y-61214285D01*
X63468571Y-61309523D01*
X63563809Y-61404761D01*
X63706666Y-61452380D01*
X63801904Y-61452380D01*
X63944761Y-61404761D01*
X63992380Y-61357142D01*
X63992380Y-61023809D01*
X63801904Y-61023809D01*
X64849523Y-60452380D02*
X64659047Y-60452380D01*
X64563809Y-60500000D01*
X64516190Y-60547619D01*
X64420952Y-60690476D01*
X64373333Y-60880952D01*
X64373333Y-61261904D01*
X64420952Y-61357142D01*
X64468571Y-61404761D01*
X64563809Y-61452380D01*
X64754285Y-61452380D01*
X64849523Y-61404761D01*
X64897142Y-61357142D01*
X64944761Y-61261904D01*
X64944761Y-61023809D01*
X64897142Y-60928571D01*
X64849523Y-60880952D01*
X64754285Y-60833333D01*
X64563809Y-60833333D01*
X64468571Y-60880952D01*
X64420952Y-60928571D01*
X64373333Y-61023809D01*
X65373333Y-61452380D02*
X65373333Y-60452380D01*
X65944761Y-61452380D01*
X65944761Y-60452380D01*
X66611428Y-60452380D02*
X66706666Y-60452380D01*
X66801904Y-60500000D01*
X66849523Y-60547619D01*
X66897142Y-60642857D01*
X66944761Y-60833333D01*
X66944761Y-61071428D01*
X66897142Y-61261904D01*
X66849523Y-61357142D01*
X66801904Y-61404761D01*
X66706666Y-61452380D01*
X66611428Y-61452380D01*
X66516190Y-61404761D01*
X66468571Y-61357142D01*
X66420952Y-61261904D01*
X66373333Y-61071428D01*
X66373333Y-60833333D01*
X66420952Y-60642857D01*
X66468571Y-60547619D01*
X66516190Y-60500000D01*
X66611428Y-60452380D01*
X67325714Y-60547619D02*
X67373333Y-60500000D01*
X67468571Y-60452380D01*
X67706666Y-60452380D01*
X67801904Y-60500000D01*
X67849523Y-60547619D01*
X67897142Y-60642857D01*
X67897142Y-60738095D01*
X67849523Y-60880952D01*
X67278095Y-61452380D01*
X67897142Y-61452380D01*
X68801904Y-61452380D02*
X68325714Y-61452380D01*
X68325714Y-60452380D01*
%TO.C,R4*%
X76398380Y-63666666D02*
X75922190Y-64000000D01*
X76398380Y-64238095D02*
X75398380Y-64238095D01*
X75398380Y-63857142D01*
X75446000Y-63761904D01*
X75493619Y-63714285D01*
X75588857Y-63666666D01*
X75731714Y-63666666D01*
X75826952Y-63714285D01*
X75874571Y-63761904D01*
X75922190Y-63857142D01*
X75922190Y-64238095D01*
X75731714Y-62809523D02*
X76398380Y-62809523D01*
X75350761Y-63047619D02*
X76065047Y-63285714D01*
X76065047Y-62666666D01*
X79446380Y-63785714D02*
X79446380Y-64357142D01*
X79446380Y-64071428D02*
X78446380Y-64071428D01*
X78589238Y-64166666D01*
X78684476Y-64261904D01*
X78732095Y-64357142D01*
X79446380Y-63357142D02*
X78446380Y-63357142D01*
X79160666Y-63023809D01*
X78446380Y-62690476D01*
X79446380Y-62690476D01*
%TO.C,R3*%
X71412380Y-63666666D02*
X70936190Y-64000000D01*
X71412380Y-64238095D02*
X70412380Y-64238095D01*
X70412380Y-63857142D01*
X70460000Y-63761904D01*
X70507619Y-63714285D01*
X70602857Y-63666666D01*
X70745714Y-63666666D01*
X70840952Y-63714285D01*
X70888571Y-63761904D01*
X70936190Y-63857142D01*
X70936190Y-64238095D01*
X70412380Y-63333333D02*
X70412380Y-62714285D01*
X70793333Y-63047619D01*
X70793333Y-62904761D01*
X70840952Y-62809523D01*
X70888571Y-62761904D01*
X70983809Y-62714285D01*
X71221904Y-62714285D01*
X71317142Y-62761904D01*
X71364761Y-62809523D01*
X71412380Y-62904761D01*
X71412380Y-63190476D01*
X71364761Y-63285714D01*
X71317142Y-63333333D01*
X74272380Y-63714285D02*
X74272380Y-64285714D01*
X74272380Y-64000000D02*
X73272380Y-64000000D01*
X73415238Y-64095238D01*
X73510476Y-64190476D01*
X73558095Y-64285714D01*
X74272380Y-63285714D02*
X73272380Y-63285714D01*
X74272380Y-62714285D02*
X73700952Y-63142857D01*
X73272380Y-62714285D02*
X73843809Y-63285714D01*
%TO.C,R2*%
X71412380Y-69104166D02*
X70936190Y-69437500D01*
X71412380Y-69675595D02*
X70412380Y-69675595D01*
X70412380Y-69294642D01*
X70460000Y-69199404D01*
X70507619Y-69151785D01*
X70602857Y-69104166D01*
X70745714Y-69104166D01*
X70840952Y-69151785D01*
X70888571Y-69199404D01*
X70936190Y-69294642D01*
X70936190Y-69675595D01*
X70507619Y-68723214D02*
X70460000Y-68675595D01*
X70412380Y-68580357D01*
X70412380Y-68342261D01*
X70460000Y-68247023D01*
X70507619Y-68199404D01*
X70602857Y-68151785D01*
X70698095Y-68151785D01*
X70840952Y-68199404D01*
X71412380Y-68770833D01*
X71412380Y-68151785D01*
X74272380Y-70104166D02*
X74272380Y-70675595D01*
X74272380Y-70389880D02*
X73272380Y-70389880D01*
X73415238Y-70485119D01*
X73510476Y-70580357D01*
X73558095Y-70675595D01*
X73272380Y-69485119D02*
X73272380Y-69389880D01*
X73320000Y-69294642D01*
X73367619Y-69247023D01*
X73462857Y-69199404D01*
X73653333Y-69151785D01*
X73891428Y-69151785D01*
X74081904Y-69199404D01*
X74177142Y-69247023D01*
X74224761Y-69294642D01*
X74272380Y-69389880D01*
X74272380Y-69485119D01*
X74224761Y-69580357D01*
X74177142Y-69627976D01*
X74081904Y-69675595D01*
X73891428Y-69723214D01*
X73653333Y-69723214D01*
X73462857Y-69675595D01*
X73367619Y-69627976D01*
X73320000Y-69580357D01*
X73272380Y-69485119D01*
X73272380Y-68532738D02*
X73272380Y-68437500D01*
X73320000Y-68342261D01*
X73367619Y-68294642D01*
X73462857Y-68247023D01*
X73653333Y-68199404D01*
X73891428Y-68199404D01*
X74081904Y-68247023D01*
X74177142Y-68294642D01*
X74224761Y-68342261D01*
X74272380Y-68437500D01*
X74272380Y-68532738D01*
X74224761Y-68627976D01*
X74177142Y-68675595D01*
X74081904Y-68723214D01*
X73891428Y-68770833D01*
X73653333Y-68770833D01*
X73462857Y-68723214D01*
X73367619Y-68675595D01*
X73320000Y-68627976D01*
X73272380Y-68532738D01*
X74272380Y-67770833D02*
X73272380Y-67770833D01*
X74272380Y-67199404D02*
X73700952Y-67627976D01*
X73272380Y-67199404D02*
X73843809Y-67770833D01*
%TO.C,R1*%
X66238380Y-69104166D02*
X65762190Y-69437500D01*
X66238380Y-69675595D02*
X65238380Y-69675595D01*
X65238380Y-69294642D01*
X65286000Y-69199404D01*
X65333619Y-69151785D01*
X65428857Y-69104166D01*
X65571714Y-69104166D01*
X65666952Y-69151785D01*
X65714571Y-69199404D01*
X65762190Y-69294642D01*
X65762190Y-69675595D01*
X66238380Y-68151785D02*
X66238380Y-68723214D01*
X66238380Y-68437500D02*
X65238380Y-68437500D01*
X65381238Y-68532738D01*
X65476476Y-68627976D01*
X65524095Y-68723214D01*
X69286380Y-70104166D02*
X69286380Y-70675595D01*
X69286380Y-70389880D02*
X68286380Y-70389880D01*
X68429238Y-70485119D01*
X68524476Y-70580357D01*
X68572095Y-70675595D01*
X68286380Y-69485119D02*
X68286380Y-69389880D01*
X68334000Y-69294642D01*
X68381619Y-69247023D01*
X68476857Y-69199404D01*
X68667333Y-69151785D01*
X68905428Y-69151785D01*
X69095904Y-69199404D01*
X69191142Y-69247023D01*
X69238761Y-69294642D01*
X69286380Y-69389880D01*
X69286380Y-69485119D01*
X69238761Y-69580357D01*
X69191142Y-69627976D01*
X69095904Y-69675595D01*
X68905428Y-69723214D01*
X68667333Y-69723214D01*
X68476857Y-69675595D01*
X68381619Y-69627976D01*
X68334000Y-69580357D01*
X68286380Y-69485119D01*
X68286380Y-68532738D02*
X68286380Y-68437500D01*
X68334000Y-68342261D01*
X68381619Y-68294642D01*
X68476857Y-68247023D01*
X68667333Y-68199404D01*
X68905428Y-68199404D01*
X69095904Y-68247023D01*
X69191142Y-68294642D01*
X69238761Y-68342261D01*
X69286380Y-68437500D01*
X69286380Y-68532738D01*
X69238761Y-68627976D01*
X69191142Y-68675595D01*
X69095904Y-68723214D01*
X68905428Y-68770833D01*
X68667333Y-68770833D01*
X68476857Y-68723214D01*
X68381619Y-68675595D01*
X68334000Y-68627976D01*
X68286380Y-68532738D01*
X69286380Y-67770833D02*
X68286380Y-67770833D01*
X69286380Y-67199404D02*
X68714952Y-67627976D01*
X68286380Y-67199404D02*
X68857809Y-67770833D01*
%TO.C,J4*%
X49216666Y-57892380D02*
X49216666Y-58606666D01*
X49169047Y-58749523D01*
X49073809Y-58844761D01*
X48930952Y-58892380D01*
X48835714Y-58892380D01*
X50121428Y-58225714D02*
X50121428Y-58892380D01*
X49883333Y-57844761D02*
X49645238Y-58559047D01*
X50264285Y-58559047D01*
%TO.C,J3*%
X60646666Y-57892380D02*
X60646666Y-58606666D01*
X60599047Y-58749523D01*
X60503809Y-58844761D01*
X60360952Y-58892380D01*
X60265714Y-58892380D01*
X61027619Y-57892380D02*
X61646666Y-57892380D01*
X61313333Y-58273333D01*
X61456190Y-58273333D01*
X61551428Y-58320952D01*
X61599047Y-58368571D01*
X61646666Y-58463809D01*
X61646666Y-58701904D01*
X61599047Y-58797142D01*
X61551428Y-58844761D01*
X61456190Y-58892380D01*
X61170476Y-58892380D01*
X61075238Y-58844761D01*
X61027619Y-58797142D01*
%TO.C,J2*%
X73366666Y-57892380D02*
X73366666Y-58606666D01*
X73319047Y-58749523D01*
X73223809Y-58844761D01*
X73080952Y-58892380D01*
X72985714Y-58892380D01*
X73795238Y-57987619D02*
X73842857Y-57940000D01*
X73938095Y-57892380D01*
X74176190Y-57892380D01*
X74271428Y-57940000D01*
X74319047Y-57987619D01*
X74366666Y-58082857D01*
X74366666Y-58178095D01*
X74319047Y-58320952D01*
X73747619Y-58892380D01*
X74366666Y-58892380D01*
%TO.C,J1*%
X52030380Y-69929333D02*
X52744666Y-69929333D01*
X52887523Y-69976952D01*
X52982761Y-70072190D01*
X53030380Y-70215047D01*
X53030380Y-70310285D01*
X53030380Y-68929333D02*
X53030380Y-69500761D01*
X53030380Y-69215047D02*
X52030380Y-69215047D01*
X52173238Y-69310285D01*
X52268476Y-69405523D01*
X52316095Y-69500761D01*
%TO.C,C1*%
X76397142Y-69154166D02*
X76444761Y-69201785D01*
X76492380Y-69344642D01*
X76492380Y-69439880D01*
X76444761Y-69582738D01*
X76349523Y-69677976D01*
X76254285Y-69725595D01*
X76063809Y-69773214D01*
X75920952Y-69773214D01*
X75730476Y-69725595D01*
X75635238Y-69677976D01*
X75540000Y-69582738D01*
X75492380Y-69439880D01*
X75492380Y-69344642D01*
X75540000Y-69201785D01*
X75587619Y-69154166D01*
X76492380Y-68201785D02*
X76492380Y-68773214D01*
X76492380Y-68487500D02*
X75492380Y-68487500D01*
X75635238Y-68582738D01*
X75730476Y-68677976D01*
X75778095Y-68773214D01*
X79352380Y-70106547D02*
X79352380Y-70677976D01*
X79352380Y-70392261D02*
X78352380Y-70392261D01*
X78495238Y-70487500D01*
X78590476Y-70582738D01*
X78638095Y-70677976D01*
X78352380Y-69487500D02*
X78352380Y-69392261D01*
X78400000Y-69297023D01*
X78447619Y-69249404D01*
X78542857Y-69201785D01*
X78733333Y-69154166D01*
X78971428Y-69154166D01*
X79161904Y-69201785D01*
X79257142Y-69249404D01*
X79304761Y-69297023D01*
X79352380Y-69392261D01*
X79352380Y-69487500D01*
X79304761Y-69582738D01*
X79257142Y-69630357D01*
X79161904Y-69677976D01*
X78971428Y-69725595D01*
X78733333Y-69725595D01*
X78542857Y-69677976D01*
X78447619Y-69630357D01*
X78400000Y-69582738D01*
X78352380Y-69487500D01*
X78352380Y-68535119D02*
X78352380Y-68439880D01*
X78400000Y-68344642D01*
X78447619Y-68297023D01*
X78542857Y-68249404D01*
X78733333Y-68201785D01*
X78971428Y-68201785D01*
X79161904Y-68249404D01*
X79257142Y-68297023D01*
X79304761Y-68344642D01*
X79352380Y-68439880D01*
X79352380Y-68535119D01*
X79304761Y-68630357D01*
X79257142Y-68677976D01*
X79161904Y-68725595D01*
X78971428Y-68773214D01*
X78733333Y-68773214D01*
X78542857Y-68725595D01*
X78447619Y-68677976D01*
X78400000Y-68630357D01*
X78352380Y-68535119D01*
X78685714Y-67773214D02*
X79352380Y-67773214D01*
X78780952Y-67773214D02*
X78733333Y-67725595D01*
X78685714Y-67630357D01*
X78685714Y-67487500D01*
X78733333Y-67392261D01*
X78828571Y-67344642D01*
X79352380Y-67344642D01*
%TD*%
M02*
